0
SECTION
2
HEADER
9
$INSUNITS
70
4
9
$ACADVER
1
AC1014
9
$HANDSEED
5
FFFF
0
ENDSEC
0
SECTION
2
TABLES
0
TABLE
2
VPORT
5
8
100
AcDbSymbolTable
0
ENDTAB
0
TABLE
2
LTYPE
5
5
100
AcDbSymbolTable
70
2
0
LTYPE
5
14
100
AcDbSymbolTableRecord
100
AcDbLinetypeTableRecord
2
BYBLOCK
70
0
0
LTYPE
5
15
100
AcDbSymbolTableRecord
100
AcDbLinetypeTableRecord
2
BYLAYER
70
0
0
ENDTAB
0
TABLE
2
LAYER
5
2
100
AcDbSymbolTable
70
3
0
LAYER
5
50
100
AcDbSymbolTableRecord
100
AcDbLayerTableRecord
2
0
70
0
6
CONTINUOUS
0
LAYER
5
51
100
AcDbSymbolTableRecord
100
AcDbLayerTableRecord
2
CUTOUTS
70
0
62
1
6
CONTINUOUS
0
LAYER
5
52
100
AcDbSymbolTableRecord
100
AcDbLayerTableRecord
2
PERIMETER
70
0
62
5
6
CONTINUOUS
0
ENDTAB
0
TABLE
2
STYLE
5
3
100
AcDbSymbolTable
70
1
0
STYLE
5
11
100
AcDbSymbolTableRecord
100
AcDbTextStyleTableRecord
2
STANDARD
70
0
0
ENDTAB
0
TABLE
2
VIEW
5
6
100
AcDbSymbolTable
0
ENDTAB
0
TABLE
2
UCS
5
7
100
AcDbSymbolTable
0
ENDTAB
0
TABLE
2
APPID
5
9
100
AcDbSymbolTable
70
1
0
APPID
5
12
100
AcDbSymbolTableRecord
100
AcDbRegAppTableRecord
2
ACAD
70
0
0
ENDTAB
0
TABLE
2
DIMSTYLE
5
A
100
AcDbSymbolTable
0
ENDTAB
0
TABLE
2
BLOCK_RECORD
5
1
100
AcDbSymbolTable
70
2
0
BLOCK_RECORD
5
1F
100
AcDbSymbolTableRecord
100
AcDbBlockTableRecord
2
*MODEL_SPACE
0
BLOCK_RECORD
5
1B
100
AcDbSymbolTableRecord
100
AcDbBlockTableRecord
2
*PAPER_SPACE
0
ENDTAB
0
ENDSEC
0
SECTION
2
BLOCKS
0
BLOCK
5
20
100
AcDbEntity
100
AcDbBlockBegin
2
*MODEL_SPACE
0
ENDBLK
5
21
100
AcDbEntity
100
AcDbBlockEnd
0
BLOCK
5
1C
100
AcDbEntity
100
AcDbBlockBegin
2
*PAPER_SPACE
0
ENDBLK
5
1D
100
AcDbEntity
100
AcDbBlockEnd
0
ENDSEC
0
SECTION
2
ENTITIES
0
CIRCLE
5
100
100
AcDbEntity
8
CUTOUTS
100
AcDbCircle
10
84.500000000000014
20
-45.999999999999979
30
0
40
1.0999999999999943
210
0
220
0
230
1
0
CIRCLE
5
101
100
AcDbEntity
8
CUTOUTS
100
AcDbCircle
10
-84.499999999999972
20
46
30
0
40
1.0999999999999943
210
0
220
0
230
1
0
CIRCLE
5
102
100
AcDbEntity
8
CUTOUTS
100
AcDbCircle
10
80.000000000000014
20
45.999999999999986
30
0
40
1.0999999999999943
210
0
220
0
230
1
0
CIRCLE
5
103
100
AcDbEntity
8
CUTOUTS
100
AcDbCircle
10
1.7763568394002505e-14
20
-45.999999999999979
30
0
40
1.0999999999999943
210
0
220
0
230
1
0
CIRCLE
5
104
100
AcDbEntity
8
CUTOUTS
100
AcDbCircle
10
-84.5
20
-45.999999999999979
30
0
40
1.0999999999999943
210
0
220
0
230
1
0
CIRCLE
5
105
100
AcDbEntity
8
CUTOUTS
100
AcDbCircle
10
-2.2499999999999787
20
45.999999999999986
30
0
40
1.0999999999999943
210
0
220
0
230
1
0
LINE
5
106
100
AcDbEntity
8
CUTOUTS
100
AcDbLine
10
29.600000000000009
20
-10.500000000000007
30
0
11
29.600000000000009
21
-24.500000000000011
31
0
0
LINE
5
107
100
AcDbEntity
8
CUTOUTS
100
AcDbLine
10
29.600000000000009
20
-24.500000000000011
30
0
11
15.400000000000027
21
-24.500000000000011
31
0
0
LINE
5
108
100
AcDbEntity
8
CUTOUTS
100
AcDbLine
10
15.400000000000027
20
-24.500000000000011
30
0
11
15.400000000000027
21
-10.500000000000007
31
0
0
LINE
5
109
100
AcDbEntity
8
CUTOUTS
100
AcDbLine
10
15.400000000000027
20
-10.500000000000007
30
0
11
29.600000000000009
21
-10.500000000000007
31
0
0
LINE
5
10A
100
AcDbEntity
8
CUTOUTS
100
AcDbLine
10
-51.399999999999991
20
-7.5000000000000089
30
0
11
-65.599999999999994
21
-7.5000000000000089
31
0
0
LINE
5
10B
100
AcDbEntity
8
CUTOUTS
100
AcDbLine
10
-65.599999999999994
20
-7.5000000000000089
30
0
11
-65.599999999999994
21
6.4999999999999902
31
0
0
LINE
5
10C
100
AcDbEntity
8
CUTOUTS
100
AcDbLine
10
-65.599999999999994
20
6.4999999999999902
30
0
11
-51.399999999999991
21
6.4999999999999902
31
0
0
LINE
5
10D
100
AcDbEntity
8
CUTOUTS
100
AcDbLine
10
-51.399999999999991
20
6.4999999999999902
30
0
11
-51.399999999999991
21
-7.5000000000000089
31
0
0
LINE
5
10E
100
AcDbEntity
8
CUTOUTS
100
AcDbLine
10
-10.89999999999999
20
40.499999999999986
30
0
11
-10.89999999999999
21
26.499999999999993
31
0
0
LINE
5
10F
100
AcDbEntity
8
CUTOUTS
100
AcDbLine
10
-10.89999999999999
20
26.499999999999993
30
0
11
-25.099999999999987
21
26.499999999999993
31
0
0
LINE
5
110
100
AcDbEntity
8
CUTOUTS
100
AcDbLine
10
-25.099999999999987
20
26.499999999999993
30
0
11
-25.099999999999987
21
40.499999999999986
31
0
0
LINE
5
111
100
AcDbEntity
8
CUTOUTS
100
AcDbLine
10
-25.099999999999987
20
40.499999999999986
30
0
11
-10.89999999999999
21
40.499999999999986
31
0
0
LINE
5
112
100
AcDbEntity
8
CUTOUTS
100
AcDbLine
10
25.100000000000016
20
26.499999999999993
30
0
11
10.900000000000016
21
26.499999999999993
31
0
0
LINE
5
113
100
AcDbEntity
8
CUTOUTS
100
AcDbLine
10
10.900000000000016
20
26.499999999999993
30
0
11
10.900000000000016
21
40.499999999999986
31
0
0
LINE
5
114
100
AcDbEntity
8
CUTOUTS
100
AcDbLine
10
10.900000000000016
20
40.499999999999986
30
0
11
25.100000000000016
21
40.499999999999986
31
0
0
LINE
5
115
100
AcDbEntity
8
CUTOUTS
100
AcDbLine
10
25.100000000000016
20
40.499999999999986
30
0
11
25.100000000000016
21
26.499999999999993
31
0
0
LINE
5
116
100
AcDbEntity
8
CUTOUTS
100
AcDbLine
10
-83.599999999999994
20
-10.500000000000007
30
0
11
-69.399999999999977
21
-10.500000000000007
31
0
0
LINE
5
117
100
AcDbEntity
8
CUTOUTS
100
AcDbLine
10
-69.399999999999977
20
-10.500000000000007
30
0
11
-69.399999999999977
21
-24.500000000000011
31
0
0
LINE
5
118
100
AcDbEntity
8
CUTOUTS
100
AcDbLine
10
-69.399999999999977
20
-24.500000000000011
30
0
11
-83.599999999999994
21
-24.500000000000011
31
0
0
LINE
5
119
100
AcDbEntity
8
CUTOUTS
100
AcDbLine
10
-83.599999999999994
20
-24.500000000000011
30
0
11
-83.599999999999994
21
-10.500000000000007
31
0
0
LINE
5
11A
100
AcDbEntity
8
CUTOUTS
100
AcDbLine
10
38.600000000000009
20
-7.5000000000000089
30
0
11
24.400000000000031
21
-7.5000000000000089
31
0
0
LINE
5
11B
100
AcDbEntity
8
CUTOUTS
100
AcDbLine
10
24.400000000000031
20
-7.5000000000000089
30
0
11
24.400000000000031
21
6.4999999999999902
31
0
0
LINE
5
11C
100
AcDbEntity
8
CUTOUTS
100
AcDbLine
10
24.400000000000031
20
6.4999999999999902
30
0
11
38.600000000000009
21
6.4999999999999902
31
0
0
LINE
5
11D
100
AcDbEntity
8
CUTOUTS
100
AcDbLine
10
38.600000000000009
20
6.4999999999999902
30
0
11
38.600000000000009
21
-7.5000000000000089
31
0
0
LINE
5
11E
100
AcDbEntity
8
CUTOUTS
100
AcDbLine
10
7.1000000000000085
20
40.499999999999986
30
0
11
7.1000000000000085
21
26.499999999999993
31
0
0
LINE
5
11F
100
AcDbEntity
8
CUTOUTS
100
AcDbLine
10
7.1000000000000085
20
26.499999999999993
30
0
11
-7.0999999999999819
21
26.499999999999993
31
0
0
LINE
5
120
100
AcDbEntity
8
CUTOUTS
100
AcDbLine
10
-7.0999999999999819
20
26.499999999999993
30
0
11
-7.0999999999999819
21
40.499999999999986
31
0
0
LINE
5
121
100
AcDbEntity
8
CUTOUTS
100
AcDbLine
10
-7.0999999999999819
20
40.499999999999986
30
0
11
7.1000000000000085
21
40.499999999999986
31
0
0
LINE
5
122
100
AcDbEntity
8
CUTOUTS
100
AcDbLine
10
-65.599999999999994
20
-27.500000000000007
30
0
11
-51.399999999999991
21
-27.500000000000007
31
0
0
LINE
5
123
100
AcDbEntity
8
CUTOUTS
100
AcDbLine
10
-51.399999999999991
20
-27.500000000000007
30
0
11
-51.399999999999991
21
-41.5
31
0
0
LINE
5
124
100
AcDbEntity
8
CUTOUTS
100
AcDbLine
10
-51.399999999999991
20
-41.5
30
0
11
-65.599999999999994
21
-41.5
31
0
0
LINE
5
125
100
AcDbEntity
8
CUTOUTS
100
AcDbLine
10
-65.599999999999994
20
-41.5
30
0
11
-65.599999999999994
21
-27.500000000000007
31
0
0
LINE
5
126
100
AcDbEntity
8
CUTOUTS
100
AcDbLine
10
-83.599999999999994
20
26.499999999999993
30
0
11
-83.599999999999994
21
40.499999999999986
31
0
0
LINE
5
127
100
AcDbEntity
8
CUTOUTS
100
AcDbLine
10
-83.599999999999994
20
40.499999999999986
30
0
11
-69.399999999999977
21
40.499999999999986
31
0
0
LINE
5
128
100
AcDbEntity
8
CUTOUTS
100
AcDbLine
10
-69.399999999999977
20
40.499999999999986
30
0
11
-69.399999999999977
21
26.499999999999993
31
0
0
LINE
5
129
100
AcDbEntity
8
CUTOUTS
100
AcDbLine
10
-69.399999999999977
20
26.499999999999993
30
0
11
-83.599999999999994
21
26.499999999999993
31
0
0
LINE
5
12A
100
AcDbEntity
8
CUTOUTS
100
AcDbLine
10
-11.599999999999984
20
-7.5000000000000089
30
0
11
-11.599999999999984
21
6.4999999999999902
31
0
0
LINE
5
12B
100
AcDbEntity
8
CUTOUTS
100
AcDbLine
10
-11.599999999999984
20
6.4999999999999902
30
0
11
2.6000000000000156
21
6.4999999999999902
31
0
0
LINE
5
12C
100
AcDbEntity
8
CUTOUTS
100
AcDbLine
10
2.6000000000000156
20
6.4999999999999902
30
0
11
2.6000000000000156
21
-7.5000000000000089
31
0
0
LINE
5
12D
100
AcDbEntity
8
CUTOUTS
100
AcDbLine
10
2.6000000000000156
20
-7.5000000000000089
30
0
11
-11.599999999999984
21
-7.5000000000000089
31
0
0
LINE
5
12E
100
AcDbEntity
8
CUTOUTS
100
AcDbLine
10
-24.399999999999984
20
9.4999999999999929
30
0
11
-38.599999999999987
21
9.4999999999999929
31
0
0
LINE
5
12F
100
AcDbEntity
8
CUTOUTS
100
AcDbLine
10
-38.599999999999987
20
9.4999999999999929
30
0
11
-38.599999999999987
21
23.499999999999993
31
0
0
LINE
5
130
100
AcDbEntity
8
CUTOUTS
100
AcDbLine
10
-38.599999999999987
20
23.499999999999993
30
0
11
-24.399999999999984
21
23.499999999999993
31
0
0
LINE
5
131
100
AcDbEntity
8
CUTOUTS
100
AcDbLine
10
-24.399999999999984
20
23.499999999999993
30
0
11
-24.399999999999984
21
9.4999999999999929
31
0
0
LINE
5
132
100
AcDbEntity
8
CUTOUTS
100
AcDbLine
10
40.850000000000009
20
-41.5
30
0
11
26.650000000000027
21
-41.5
31
0
0
LINE
5
133
100
AcDbEntity
8
CUTOUTS
100
AcDbLine
10
26.650000000000027
20
-41.5
30
0
11
26.650000000000027
21
-27.500000000000007
31
0
0
LINE
5
134
100
AcDbEntity
8
CUTOUTS
100
AcDbLine
10
26.650000000000027
20
-27.500000000000007
30
0
11
40.850000000000009
21
-27.500000000000007
31
0
0
LINE
5
135
100
AcDbEntity
8
CUTOUTS
100
AcDbLine
10
40.850000000000009
20
-27.500000000000007
30
0
11
40.850000000000009
21
-41.5
31
0
0
LINE
5
136
100
AcDbEntity
8
CUTOUTS
100
AcDbLine
10
55.90000000000002
20
23.499999999999993
30
0
11
70.100000000000023
21
23.499999999999993
31
0
0
LINE
5
137
100
AcDbEntity
8
CUTOUTS
100
AcDbLine
10
70.100000000000023
20
23.499999999999993
30
0
11
70.100000000000023
21
9.4999999999999929
31
0
0
LINE
5
138
100
AcDbEntity
8
CUTOUTS
100
AcDbLine
10
70.100000000000023
20
9.4999999999999929
30
0
11
55.90000000000002
21
9.4999999999999929
31
0
0
LINE
5
139
100
AcDbEntity
8
CUTOUTS
100
AcDbLine
10
55.90000000000002
20
9.4999999999999929
30
0
11
55.90000000000002
21
23.499999999999993
31
0
0
LINE
5
13A
100
AcDbEntity
8
CUTOUTS
100
AcDbLine
10
-43.099999999999987
20
40.499999999999986
30
0
11
-28.899999999999988
21
40.499999999999986
31
0
0
LINE
5
13B
100
AcDbEntity
8
CUTOUTS
100
AcDbLine
10
-28.899999999999988
20
40.499999999999986
30
0
11
-28.899999999999988
21
26.499999999999993
31
0
0
LINE
5
13C
100
AcDbEntity
8
CUTOUTS
100
AcDbLine
10
-28.899999999999988
20
26.499999999999993
30
0
11
-43.099999999999987
21
26.499999999999993
31
0
0
LINE
5
13D
100
AcDbEntity
8
CUTOUTS
100
AcDbLine
10
-43.099999999999987
20
26.499999999999993
30
0
11
-43.099999999999987
21
40.499999999999986
31
0
0
LINE
5
13E
100
AcDbEntity
8
CUTOUTS
100
AcDbLine
10
-40.849999999999994
20
-41.5
30
0
11
-40.849999999999994
21
-27.500000000000007
31
0
0
LINE
5
13F
100
AcDbEntity
8
CUTOUTS
100
AcDbLine
10
-40.849999999999994
20
-27.500000000000007
30
0
11
-26.649999999999984
21
-27.500000000000007
31
0
0
LINE
5
140
100
AcDbEntity
8
CUTOUTS
100
AcDbLine
10
-26.649999999999984
20
-27.500000000000007
30
0
11
-26.649999999999984
21
-41.5
31
0
0
LINE
5
141
100
AcDbEntity
8
CUTOUTS
100
AcDbLine
10
-26.649999999999984
20
-41.5
30
0
11
-40.849999999999994
21
-41.5
31
0
0
LINE
5
142
100
AcDbEntity
8
CUTOUTS
100
AcDbLine
10
19.90000000000002
20
9.4999999999999929
30
0
11
19.90000000000002
21
23.499999999999993
31
0
0
LINE
5
143
100
AcDbEntity
8
CUTOUTS
100
AcDbLine
10
19.90000000000002
20
23.499999999999993
30
0
11
34.100000000000023
21
23.499999999999993
31
0
0
LINE
5
144
100
AcDbEntity
8
CUTOUTS
100
AcDbLine
10
34.100000000000023
20
23.499999999999993
30
0
11
34.100000000000023
21
9.4999999999999929
31
0
0
LINE
5
145
100
AcDbEntity
8
CUTOUTS
100
AcDbLine
10
34.100000000000023
20
9.4999999999999929
30
0
11
19.90000000000002
21
9.4999999999999929
31
0
0
LINE
5
146
100
AcDbEntity
8
CUTOUTS
100
AcDbLine
10
-65.599999999999994
20
-10.500000000000007
30
0
11
-51.399999999999991
21
-10.500000000000007
31
0
0
LINE
5
147
100
AcDbEntity
8
CUTOUTS
100
AcDbLine
10
-51.399999999999991
20
-10.500000000000007
30
0
11
-51.399999999999991
21
-24.500000000000011
31
0
0
LINE
5
148
100
AcDbEntity
8
CUTOUTS
100
AcDbLine
10
-51.399999999999991
20
-24.500000000000011
30
0
11
-65.599999999999994
21
-24.500000000000011
31
0
0
LINE
5
149
100
AcDbEntity
8
CUTOUTS
100
AcDbLine
10
-65.599999999999994
20
-24.500000000000011
30
0
11
-65.599999999999994
21
-10.500000000000007
31
0
0
LINE
5
14A
100
AcDbEntity
8
CUTOUTS
100
AcDbLine
10
69.400000000000034
20
-10.500000000000007
30
0
11
83.600000000000009
21
-10.500000000000007
31
0
0
LINE
5
14B
100
AcDbEntity
8
CUTOUTS
100
AcDbLine
10
83.600000000000009
20
-10.500000000000007
30
0
11
83.600000000000009
21
-24.500000000000011
31
0
0
LINE
5
14C
100
AcDbEntity
8
CUTOUTS
100
AcDbLine
10
83.600000000000009
20
-24.500000000000011
30
0
11
69.400000000000034
21
-24.500000000000011
31
0
0
LINE
5
14D
100
AcDbEntity
8
CUTOUTS
100
AcDbLine
10
69.400000000000034
20
-24.500000000000011
30
0
11
69.400000000000034
21
-10.500000000000007
31
0
0
LINE
5
14E
100
AcDbEntity
8
CUTOUTS
100
AcDbLine
10
6.4000000000000234
20
6.4999999999999902
30
0
11
20.600000000000005
21
6.4999999999999902
31
0
0
LINE
5
14F
100
AcDbEntity
8
CUTOUTS
100
AcDbLine
10
20.600000000000005
20
6.4999999999999902
30
0
11
20.600000000000005
21
-7.5000000000000089
31
0
0
LINE
5
150
100
AcDbEntity
8
CUTOUTS
100
AcDbLine
10
20.600000000000005
20
-7.5000000000000089
30
0
11
6.4000000000000234
21
-7.5000000000000089
31
0
0
LINE
5
151
100
AcDbEntity
8
CUTOUTS
100
AcDbLine
10
6.4000000000000234
20
-7.5000000000000089
30
0
11
6.4000000000000234
21
6.4999999999999902
31
0
0
LINE
5
152
100
AcDbEntity
8
CUTOUTS
100
AcDbLine
10
-16.099999999999977
20
23.499999999999993
30
0
11
-1.899999999999995
21
23.499999999999993
31
0
0
LINE
5
153
100
AcDbEntity
8
CUTOUTS
100
AcDbLine
10
-1.899999999999995
20
23.499999999999993
30
0
11
-1.899999999999995
21
9.4999999999999929
31
0
0
LINE
5
154
100
AcDbEntity
8
CUTOUTS
100
AcDbLine
10
-1.899999999999995
20
9.4999999999999929
30
0
11
-16.099999999999977
21
9.4999999999999929
31
0
0
LINE
5
155
100
AcDbEntity
8
CUTOUTS
100
AcDbLine
10
-16.099999999999977
20
9.4999999999999929
30
0
11
-16.099999999999977
21
23.499999999999993
31
0
0
LINE
5
156
100
AcDbEntity
8
CUTOUTS
100
AcDbLine
10
-83.599999999999994
20
23.499999999999993
30
0
11
-69.399999999999977
21
23.499999999999993
31
0
0
LINE
5
157
100
AcDbEntity
8
CUTOUTS
100
AcDbLine
10
-69.399999999999977
20
23.499999999999993
30
0
11
-69.399999999999977
21
9.4999999999999929
31
0
0
LINE
5
158
100
AcDbEntity
8
CUTOUTS
100
AcDbLine
10
-69.399999999999977
20
9.4999999999999929
30
0
11
-83.599999999999994
21
9.4999999999999929
31
0
0
LINE
5
159
100
AcDbEntity
8
CUTOUTS
100
AcDbLine
10
-83.599999999999994
20
9.4999999999999929
30
0
11
-83.599999999999994
21
23.499999999999993
31
0
0
LINE
5
15A
100
AcDbEntity
8
CUTOUTS
100
AcDbLine
10
37.900000000000027
20
9.4999999999999929
30
0
11
37.900000000000027
21
23.499999999999993
31
0
0
LINE
5
15B
100
AcDbEntity
8
CUTOUTS
100
AcDbLine
10
37.900000000000027
20
23.499999999999993
30
0
11
52.100000000000009
21
23.499999999999993
31
0
0
LINE
5
15C
100
AcDbEntity
8
CUTOUTS
100
AcDbLine
10
52.100000000000009
20
23.499999999999993
30
0
11
52.100000000000009
21
9.4999999999999929
31
0
0
LINE
5
15D
100
AcDbEntity
8
CUTOUTS
100
AcDbLine
10
52.100000000000009
20
9.4999999999999929
30
0
11
37.900000000000027
21
9.4999999999999929
31
0
0
LINE
5
15E
100
AcDbEntity
8
CUTOUTS
100
AcDbLine
10
56.40000000000002
20
-37.550000000000011
30
0
11
50.100000000000016
21
-37.550000000000011
31
0
0
LINE
5
15F
100
AcDbEntity
8
CUTOUTS
100
AcDbLine
10
50.100000000000016
20
-37.550000000000011
30
0
11
50.100000000000016
21
-30.70000000000001
31
0
0
LINE
5
160
100
AcDbEntity
8
CUTOUTS
100
AcDbLine
10
50.100000000000016
20
-30.70000000000001
30
0
11
51.450000000000017
21
-30.70000000000001
31
0
0
LINE
5
161
100
AcDbEntity
8
CUTOUTS
100
AcDbLine
10
51.450000000000017
20
-30.70000000000001
30
0
11
51.450000000000017
21
-26.050000000000004
31
0
0
LINE
5
162
100
AcDbEntity
8
CUTOUTS
100
AcDbLine
10
51.450000000000017
20
-26.050000000000004
30
0
11
55.050000000000026
21
-26.050000000000004
31
0
0
LINE
5
163
100
AcDbEntity
8
CUTOUTS
100
AcDbLine
10
55.050000000000026
20
-26.050000000000004
30
0
11
55.050000000000026
21
-30.70000000000001
31
0
0
LINE
5
164
100
AcDbEntity
8
CUTOUTS
100
AcDbLine
10
55.050000000000026
20
-30.70000000000001
30
0
11
56.40000000000002
21
-30.70000000000001
31
0
0
LINE
5
165
100
AcDbEntity
8
CUTOUTS
100
AcDbLine
10
56.40000000000002
20
-30.70000000000001
30
0
11
56.40000000000002
21
-37.550000000000011
31
0
0
LINE
5
166
100
AcDbEntity
8
CUTOUTS
100
AcDbLine
10
74.600000000000023
20
6.4999999999999902
30
0
11
74.600000000000023
21
-7.5000000000000089
31
0
0
LINE
5
167
100
AcDbEntity
8
CUTOUTS
100
AcDbLine
10
74.600000000000023
20
-7.5000000000000089
30
0
11
60.400000000000027
21
-7.5000000000000089
31
0
0
LINE
5
168
100
AcDbEntity
8
CUTOUTS
100
AcDbLine
10
60.400000000000027
20
-7.5000000000000089
30
0
11
60.400000000000027
21
6.4999999999999902
31
0
0
LINE
5
169
100
AcDbEntity
8
CUTOUTS
100
AcDbLine
10
60.400000000000027
20
6.4999999999999902
30
0
11
74.600000000000023
21
6.4999999999999902
31
0
0
LINE
5
16A
100
AcDbEntity
8
CUTOUTS
100
AcDbLine
10
-39.899999999999984
20
-13.70000000000001
30
0
11
-38.549999999999983
21
-13.70000000000001
31
0
0
LINE
5
16B
100
AcDbEntity
8
CUTOUTS
100
AcDbLine
10
-38.549999999999983
20
-13.70000000000001
30
0
11
-38.549999999999983
21
-9.0500000000000114
31
0
0
LINE
5
16C
100
AcDbEntity
8
CUTOUTS
100
AcDbLine
10
-38.549999999999983
20
-9.0500000000000114
30
0
11
-34.949999999999989
21
-9.0500000000000114
31
0
0
LINE
5
16D
100
AcDbEntity
8
CUTOUTS
100
AcDbLine
10
-34.949999999999989
20
-9.0500000000000114
30
0
11
-34.949999999999989
21
-13.70000000000001
31
0
0
LINE
5
16E
100
AcDbEntity
8
CUTOUTS
100
AcDbLine
10
-34.949999999999989
20
-13.70000000000001
30
0
11
-33.599999999999987
21
-13.70000000000001
31
0
0
LINE
5
16F
100
AcDbEntity
8
CUTOUTS
100
AcDbLine
10
-33.599999999999987
20
-13.70000000000001
30
0
11
-33.599999999999987
21
-20.550000000000004
31
0
0
LINE
5
170
100
AcDbEntity
8
CUTOUTS
100
AcDbLine
10
-33.599999999999987
20
-20.550000000000004
30
0
11
-39.899999999999984
21
-20.550000000000004
31
0
0
LINE
5
171
100
AcDbEntity
8
CUTOUTS
100
AcDbLine
10
-39.899999999999984
20
-20.550000000000004
30
0
11
-39.899999999999984
21
-13.70000000000001
31
0
0
LINE
5
172
100
AcDbEntity
8
CUTOUTS
100
AcDbLine
10
58.150000000000034
20
-27.500000000000007
30
0
11
72.350000000000009
21
-27.500000000000007
31
0
0
LINE
5
173
100
AcDbEntity
8
CUTOUTS
100
AcDbLine
10
72.350000000000009
20
-27.500000000000007
30
0
11
72.350000000000009
21
-41.5
31
0
0
LINE
5
174
100
AcDbEntity
8
CUTOUTS
100
AcDbLine
10
72.350000000000009
20
-41.5
30
0
11
58.150000000000034
21
-41.5
31
0
0
LINE
5
175
100
AcDbEntity
8
CUTOUTS
100
AcDbLine
10
58.150000000000034
20
-41.5
30
0
11
58.150000000000034
21
-27.500000000000007
31
0
0
LINE
5
176
100
AcDbEntity
8
CUTOUTS
100
AcDbLine
10
51.40000000000002
20
-10.500000000000007
30
0
11
65.600000000000009
21
-10.500000000000007
31
0
0
LINE
5
177
100
AcDbEntity
8
CUTOUTS
100
AcDbLine
10
65.600000000000009
20
-10.500000000000007
30
0
11
65.600000000000009
21
-24.500000000000011
31
0
0
LINE
5
178
100
AcDbEntity
8
CUTOUTS
100
AcDbLine
10
65.600000000000009
20
-24.500000000000011
30
0
11
51.40000000000002
21
-24.500000000000011
31
0
0
LINE
5
179
100
AcDbEntity
8
CUTOUTS
100
AcDbLine
10
51.40000000000002
20
-24.500000000000011
30
0
11
51.40000000000002
21
-10.500000000000007
31
0
0
LINE
5
17A
100
AcDbEntity
8
CUTOUTS
100
AcDbLine
10
46.900000000000034
20
26.499999999999993
30
0
11
46.900000000000034
21
40.499999999999986
31
0
0
LINE
5
17B
100
AcDbEntity
8
CUTOUTS
100
AcDbLine
10
46.900000000000034
20
40.499999999999986
30
0
11
61.100000000000009
21
40.499999999999986
31
0
0
LINE
5
17C
100
AcDbEntity
8
CUTOUTS
100
AcDbLine
10
61.100000000000009
20
40.499999999999986
30
0
11
61.100000000000009
21
26.499999999999993
31
0
0
LINE
5
17D
100
AcDbEntity
8
CUTOUTS
100
AcDbLine
10
61.100000000000009
20
26.499999999999993
30
0
11
46.900000000000034
21
26.499999999999993
31
0
0
LINE
5
17E
100
AcDbEntity
8
CUTOUTS
100
AcDbLine
10
-4.1499999999999915
20
-27.500000000000007
30
0
11
-4.1499999999999915
21
-41.5
31
0
0
LINE
5
17F
100
AcDbEntity
8
CUTOUTS
100
AcDbLine
10
-4.1499999999999915
20
-41.5
30
0
11
-18.34999999999998
21
-41.5
31
0
0
LINE
5
180
100
AcDbEntity
8
CUTOUTS
100
AcDbLine
10
-18.34999999999998
20
-41.5
30
0
11
-18.34999999999998
21
-27.500000000000007
31
0
0
LINE
5
181
100
AcDbEntity
8
CUTOUTS
100
AcDbLine
10
-18.34999999999998
20
-27.500000000000007
30
0
11
-4.1499999999999915
21
-27.500000000000007
31
0
0
LINE
5
182
100
AcDbEntity
8
CUTOUTS
100
AcDbLine
10
18.350000000000009
20
-27.500000000000007
30
0
11
18.350000000000009
21
-41.5
31
0
0
LINE
5
183
100
AcDbEntity
8
CUTOUTS
100
AcDbLine
10
18.350000000000009
20
-41.5
30
0
11
4.150000000000027
21
-41.5
31
0
0
LINE
5
184
100
AcDbEntity
8
CUTOUTS
100
AcDbLine
10
4.150000000000027
20
-41.5
30
0
11
4.150000000000027
21
-27.500000000000007
31
0
0
LINE
5
185
100
AcDbEntity
8
CUTOUTS
100
AcDbLine
10
4.150000000000027
20
-27.500000000000007
30
0
11
18.350000000000009
21
-27.500000000000007
31
0
0
LINE
5
186
100
AcDbEntity
8
CUTOUTS
100
AcDbLine
10
74.100000000000023
20
-30.70000000000001
30
0
11
75.450000000000003
21
-30.70000000000001
31
0
0
LINE
5
187
100
AcDbEntity
8
CUTOUTS
100
AcDbLine
10
75.450000000000003
20
-30.70000000000001
30
0
11
75.450000000000003
21
-26.050000000000004
31
0
0
LINE
5
188
100
AcDbEntity
8
CUTOUTS
100
AcDbLine
10
75.450000000000003
20
-26.050000000000004
30
0
11
79.050000000000026
21
-26.050000000000004
31
0
0
LINE
5
189
100
AcDbEntity
8
CUTOUTS
100
AcDbLine
10
79.050000000000026
20
-26.050000000000004
30
0
11
79.050000000000026
21
-30.70000000000001
31
0
0
LINE
5
18A
100
AcDbEntity
8
CUTOUTS
100
AcDbLine
10
79.050000000000026
20
-30.70000000000001
30
0
11
80.400000000000006
21
-30.70000000000001
31
0
0
LINE
5
18B
100
AcDbEntity
8
CUTOUTS
100
AcDbLine
10
80.400000000000006
20
-30.70000000000001
30
0
11
80.400000000000006
21
-37.550000000000011
31
0
0
LINE
5
18C
100
AcDbEntity
8
CUTOUTS
100
AcDbLine
10
80.400000000000006
20
-37.550000000000011
30
0
11
74.100000000000023
21
-37.550000000000011
31
0
0
LINE
5
18D
100
AcDbEntity
8
CUTOUTS
100
AcDbLine
10
74.100000000000023
20
-37.550000000000011
30
0
11
74.100000000000023
21
-30.70000000000001
31
0
0
LINE
5
18E
100
AcDbEntity
8
CUTOUTS
100
AcDbLine
10
-2.5999999999999801
20
-10.500000000000007
30
0
11
11.600000000000019
21
-10.500000000000007
31
0
0
LINE
5
18F
100
AcDbEntity
8
CUTOUTS
100
AcDbLine
10
11.600000000000019
20
-10.500000000000007
30
0
11
11.600000000000019
21
-24.500000000000011
31
0
0
LINE
5
190
100
AcDbEntity
8
CUTOUTS
100
AcDbLine
10
11.600000000000019
20
-24.500000000000011
30
0
11
-2.5999999999999801
21
-24.500000000000011
31
0
0
LINE
5
191
100
AcDbEntity
8
CUTOUTS
100
AcDbLine
10
-2.5999999999999801
20
-24.500000000000011
30
0
11
-2.5999999999999801
21
-10.500000000000007
31
0
0
LINE
5
192
100
AcDbEntity
8
CUTOUTS
100
AcDbLine
10
42.40000000000002
20
6.4999999999999902
30
0
11
56.600000000000023
21
6.4999999999999902
31
0
0
LINE
5
193
100
AcDbEntity
8
CUTOUTS
100
AcDbLine
10
56.600000000000023
20
6.4999999999999902
30
0
11
56.600000000000023
21
-7.5000000000000089
31
0
0
LINE
5
194
100
AcDbEntity
8
CUTOUTS
100
AcDbLine
10
56.600000000000023
20
-7.5000000000000089
30
0
11
42.40000000000002
21
-7.5000000000000089
31
0
0
LINE
5
195
100
AcDbEntity
8
CUTOUTS
100
AcDbLine
10
42.40000000000002
20
-7.5000000000000089
30
0
11
42.40000000000002
21
6.4999999999999902
31
0
0
LINE
5
196
100
AcDbEntity
8
CUTOUTS
100
AcDbLine
10
-17.649999999999988
20
-10.500000000000007
30
0
11
-17.649999999999988
21
-24.500000000000011
31
0
0
LINE
5
197
100
AcDbEntity
8
CUTOUTS
100
AcDbLine
10
-17.649999999999988
20
-24.500000000000011
30
0
11
-31.849999999999987
21
-24.500000000000011
31
0
0
LINE
5
198
100
AcDbEntity
8
CUTOUTS
100
AcDbLine
10
-31.849999999999987
20
-24.500000000000011
30
0
11
-31.849999999999987
21
-10.500000000000007
31
0
0
LINE
5
199
100
AcDbEntity
8
CUTOUTS
100
AcDbLine
10
-31.849999999999987
20
-10.500000000000007
30
0
11
-17.649999999999988
21
-10.500000000000007
31
0
0
LINE
5
19A
100
AcDbEntity
8
CUTOUTS
100
AcDbLine
10
79.100000000000023
20
26.499999999999993
30
0
11
64.90000000000002
21
26.499999999999993
31
0
0
LINE
5
19B
100
AcDbEntity
8
CUTOUTS
100
AcDbLine
10
64.90000000000002
20
26.499999999999993
30
0
11
64.90000000000002
21
40.499999999999986
31
0
0
LINE
5
19C
100
AcDbEntity
8
CUTOUTS
100
AcDbLine
10
64.90000000000002
20
40.499999999999986
30
0
11
79.100000000000023
21
40.499999999999986
31
0
0
LINE
5
19D
100
AcDbEntity
8
CUTOUTS
100
AcDbLine
10
79.100000000000023
20
40.499999999999986
30
0
11
79.100000000000023
21
26.499999999999993
31
0
0
LINE
5
19E
100
AcDbEntity
8
CUTOUTS
100
AcDbLine
10
-51.399999999999991
20
26.499999999999993
30
0
11
-65.599999999999994
21
26.499999999999993
31
0
0
LINE
5
19F
100
AcDbEntity
8
CUTOUTS
100
AcDbLine
10
-65.599999999999994
20
26.499999999999993
30
0
11
-65.599999999999994
21
40.499999999999986
31
0
0
LINE
5
1A0
100
AcDbEntity
8
CUTOUTS
100
AcDbLine
10
-65.599999999999994
20
40.499999999999986
30
0
11
-51.399999999999991
21
40.499999999999986
31
0
0
LINE
5
1A1
100
AcDbEntity
8
CUTOUTS
100
AcDbLine
10
-51.399999999999991
20
40.499999999999986
30
0
11
-51.399999999999991
21
26.499999999999993
31
0
0
LINE
5
1A2
100
AcDbEntity
8
CUTOUTS
100
AcDbLine
10
16.100000000000012
20
9.4999999999999929
30
0
11
1.9000000000000128
21
9.4999999999999929
31
0
0
LINE
5
1A3
100
AcDbEntity
8
CUTOUTS
100
AcDbLine
10
1.9000000000000128
20
9.4999999999999929
30
0
11
1.9000000000000128
21
23.499999999999993
31
0
0
LINE
5
1A4
100
AcDbEntity
8
CUTOUTS
100
AcDbLine
10
1.9000000000000128
20
23.499999999999993
30
0
11
16.100000000000012
21
23.499999999999993
31
0
0
LINE
5
1A5
100
AcDbEntity
8
CUTOUTS
100
AcDbLine
10
16.100000000000012
20
23.499999999999993
30
0
11
16.100000000000012
21
9.4999999999999929
31
0
0
LINE
5
1A6
100
AcDbEntity
8
CUTOUTS
100
AcDbLine
10
-51.399999999999991
20
9.4999999999999929
30
0
11
-65.599999999999994
21
9.4999999999999929
31
0
0
LINE
5
1A7
100
AcDbEntity
8
CUTOUTS
100
AcDbLine
10
-65.599999999999994
20
9.4999999999999929
30
0
11
-65.599999999999994
21
23.499999999999993
31
0
0
LINE
5
1A8
100
AcDbEntity
8
CUTOUTS
100
AcDbLine
10
-65.599999999999994
20
23.499999999999993
30
0
11
-51.399999999999991
21
23.499999999999993
31
0
0
LINE
5
1A9
100
AcDbEntity
8
CUTOUTS
100
AcDbLine
10
-51.399999999999991
20
23.499999999999993
30
0
11
-51.399999999999991
21
9.4999999999999929
31
0
0
LINE
5
1AA
100
AcDbEntity
8
CUTOUTS
100
AcDbLine
10
-14.549999999999983
20
-9.0500000000000114
30
0
11
-10.949999999999989
21
-9.0500000000000114
31
0
0
LINE
5
1AB
100
AcDbEntity
8
CUTOUTS
100
AcDbLine
10
-10.949999999999989
20
-9.0500000000000114
30
0
11
-10.949999999999989
21
-13.70000000000001
31
0
0
LINE
5
1AC
100
AcDbEntity
8
CUTOUTS
100
AcDbLine
10
-10.949999999999989
20
-13.70000000000001
30
0
11
-9.5999999999999819
21
-13.70000000000001
31
0
0
LINE
5
1AD
100
AcDbEntity
8
CUTOUTS
100
AcDbLine
10
-9.5999999999999819
20
-13.70000000000001
30
0
11
-9.5999999999999819
21
-20.550000000000004
31
0
0
LINE
5
1AE
100
AcDbEntity
8
CUTOUTS
100
AcDbLine
10
-9.5999999999999819
20
-20.550000000000004
30
0
11
-15.89999999999999
21
-20.550000000000004
31
0
0
LINE
5
1AF
100
AcDbEntity
8
CUTOUTS
100
AcDbLine
10
-15.89999999999999
20
-20.550000000000004
30
0
11
-15.89999999999999
21
-13.70000000000001
31
0
0
LINE
5
1B0
100
AcDbEntity
8
CUTOUTS
100
AcDbLine
10
-15.89999999999999
20
-13.70000000000001
30
0
11
-14.549999999999983
21
-13.70000000000001
31
0
0
LINE
5
1B1
100
AcDbEntity
8
CUTOUTS
100
AcDbLine
10
-14.549999999999983
20
-13.70000000000001
30
0
11
-14.549999999999983
21
-9.0500000000000114
31
0
0
LINE
5
1B2
100
AcDbEntity
8
CUTOUTS
100
AcDbLine
10
-83.599999999999994
20
-7.5000000000000089
30
0
11
-83.599999999999994
21
6.4999999999999902
31
0
0
LINE
5
1B3
100
AcDbEntity
8
CUTOUTS
100
AcDbLine
10
-83.599999999999994
20
6.4999999999999902
30
0
11
-69.399999999999977
21
6.4999999999999902
31
0
0
LINE
5
1B4
100
AcDbEntity
8
CUTOUTS
100
AcDbLine
10
-69.399999999999977
20
6.4999999999999902
30
0
11
-69.399999999999977
21
-7.5000000000000089
31
0
0
LINE
5
1B5
100
AcDbEntity
8
CUTOUTS
100
AcDbLine
10
-69.399999999999977
20
-7.5000000000000089
30
0
11
-83.599999999999994
21
-7.5000000000000089
31
0
0
LINE
5
1B6
100
AcDbEntity
8
CUTOUTS
100
AcDbLine
10
-83.599999999999994
20
-27.500000000000007
30
0
11
-69.399999999999977
21
-27.500000000000007
31
0
0
LINE
5
1B7
100
AcDbEntity
8
CUTOUTS
100
AcDbLine
10
-69.399999999999977
20
-27.500000000000007
30
0
11
-69.399999999999977
21
-41.5
31
0
0
LINE
5
1B8
100
AcDbEntity
8
CUTOUTS
100
AcDbLine
10
-69.399999999999977
20
-41.5
30
0
11
-83.599999999999994
21
-41.5
31
0
0
LINE
5
1B9
100
AcDbEntity
8
CUTOUTS
100
AcDbLine
10
-83.599999999999994
20
-41.5
30
0
11
-83.599999999999994
21
-27.500000000000007
31
0
0
LINE
5
1BA
100
AcDbEntity
8
CUTOUTS
100
AcDbLine
10
33.40000000000002
20
-10.500000000000007
30
0
11
47.600000000000016
21
-10.500000000000007
31
0
0
LINE
5
1BB
100
AcDbEntity
8
CUTOUTS
100
AcDbLine
10
47.600000000000016
20
-10.500000000000007
30
0
11
47.600000000000016
21
-24.500000000000011
31
0
0
LINE
5
1BC
100
AcDbEntity
8
CUTOUTS
100
AcDbLine
10
47.600000000000016
20
-24.500000000000011
30
0
11
33.40000000000002
21
-24.500000000000011
31
0
0
LINE
5
1BD
100
AcDbEntity
8
CUTOUTS
100
AcDbLine
10
33.40000000000002
20
-24.500000000000011
30
0
11
33.40000000000002
21
-10.500000000000007
31
0
0
LINE
5
1BE
100
AcDbEntity
8
CUTOUTS
100
AcDbLine
10
43.100000000000009
20
26.499999999999993
30
0
11
28.900000000000023
21
26.499999999999993
31
0
0
LINE
5
1BF
100
AcDbEntity
8
CUTOUTS
100
AcDbLine
10
28.900000000000023
20
26.499999999999993
30
0
11
28.900000000000023
21
40.499999999999986
31
0
0
LINE
5
1C0
100
AcDbEntity
8
CUTOUTS
100
AcDbLine
10
28.900000000000023
20
40.499999999999986
30
0
11
43.100000000000009
21
40.499999999999986
31
0
0
LINE
5
1C1
100
AcDbEntity
8
CUTOUTS
100
AcDbLine
10
43.100000000000009
20
40.499999999999986
30
0
11
43.100000000000009
21
26.499999999999993
31
0
0
LINE
5
1C2
100
AcDbEntity
8
CUTOUTS
100
AcDbLine
10
-36.349999999999987
20
6.4999999999999902
30
0
11
-22.149999999999981
21
6.4999999999999902
31
0
0
LINE
5
1C3
100
AcDbEntity
8
CUTOUTS
100
AcDbLine
10
-22.149999999999981
20
6.4999999999999902
30
0
11
-22.149999999999981
21
-7.5000000000000089
31
0
0
LINE
5
1C4
100
AcDbEntity
8
CUTOUTS
100
AcDbLine
10
-22.149999999999981
20
-7.5000000000000089
30
0
11
-36.349999999999987
21
-7.5000000000000089
31
0
0
LINE
5
1C5
100
AcDbEntity
8
CUTOUTS
100
AcDbLine
10
-36.349999999999987
20
-7.5000000000000089
30
0
11
-36.349999999999987
21
6.4999999999999902
31
0
0
ARC
5
1C6
100
AcDbEntity
8
PERIMETER
100
AcDbCircle
10
79.500000000000014
20
-6.0000000000000142
30
0
40
1.0000000000000142
210
0
220
0
230
1
100
AcDbArc
50
180
51
270
0
LINE
5
1C7
100
AcDbEntity
8
PERIMETER
100
AcDbLine
10
78.5
20
-6.0000000000000142
30
0
11
78.5
21
8.9999999999999893
31
0
0
ARC
5
1C8
100
AcDbEntity
8
PERIMETER
100
AcDbCircle
10
77.499999999999986
20
8.9999999999999893
30
0
40
1.0000000000000142
210
0
220
-0
230
1
100
AcDbArc
50
0
51
90
0
LINE
5
1C9
100
AcDbEntity
8
PERIMETER
100
AcDbLine
10
77.499999999999986
20
10.000000000000004
30
0
11
75.000000000000014
21
9.9999999999999911
31
0
0
ARC
5
1CA
100
AcDbEntity
8
PERIMETER
100
AcDbCircle
10
75.000000000000014
20
10.999999999999996
30
0
40
0.99999999999999645
210
0
220
0
230
1
100
AcDbArc
50
180
51
270
0
LINE
5
1CB
100
AcDbEntity
8
PERIMETER
100
AcDbLine
10
74.000000000000028
20
10.999999999999996
30
0
11
74
21
21.999999999999993
31
0
0
ARC
5
1CC
100
AcDbEntity
8
PERIMETER
100
AcDbCircle
10
75.000000000000014
20
21.999999999999993
30
0
40
1.0000000000000009
210
0
220
-0
230
1
100
AcDbArc
50
90
51
180
0
LINE
5
1CD
100
AcDbEntity
8
PERIMETER
100
AcDbLine
10
75.000000000000014
20
22.999999999999993
30
0
11
82.000000000000014
21
22.999999999999989
31
0
0
ARC
5
1CE
100
AcDbEntity
8
PERIMETER
100
AcDbCircle
10
82.000000000000043
20
23.999999999999993
30
0
40
1.0000000000000053
210
0
220
0
230
1
100
AcDbArc
50
-90.000000000001634
51
0
0
LINE
5
1CF
100
AcDbEntity
8
PERIMETER
100
AcDbLine
10
83.000000000000057
20
23.999999999999993
30
0
11
83.000000000000028
21
46.999999999999993
31
0
0
ARC
5
1D0
100
AcDbEntity
8
PERIMETER
100
AcDbCircle
10
81.000000000000028
20
46.999999999999986
30
0
40
1.9999999999999929
210
0
220
-0
230
1
100
AcDbArc
50
0
51
90
0
LINE
5
1D1
100
AcDbEntity
8
PERIMETER
100
AcDbLine
10
81.000000000000028
20
48.999999999999979
30
0
11
-84.500000000000014
21
48.999999999999993
31
0
0
ARC
5
1D2
100
AcDbEntity
8
PERIMETER
100
AcDbCircle
10
-84.5
20
46
30
0
40
3.0000000000000071
210
0
220
0
230
1
100
AcDbArc
50
90.00000000000027
51
180
0
LINE
5
1D3
100
AcDbEntity
8
PERIMETER
100
AcDbLine
10
-87.5
20
45.999999999999986
30
0
11
-87.499999999999986
21
-46.000000000000007
31
0
0
ARC
5
1D4
100
AcDbEntity
8
PERIMETER
100
AcDbCircle
10
-84.499999999999972
20
-46
30
0
40
3.0000000000000071
210
0
220
0
230
1
100
AcDbArc
50
180
51
269.99999999999943
0
LINE
5
1D5
100
AcDbEntity
8
PERIMETER
100
AcDbLine
10
-84.5
20
-49
30
0
11
85.5
21
-49
31
0
0
ARC
5
1D6
100
AcDbEntity
8
PERIMETER
100
AcDbCircle
10
85.500000000000028
20
-47.000000000000014
30
0
40
1.9999999999999929
210
-0
220
0
230
1
100
AcDbArc
50
-90
51
0
0
LINE
5
1D7
100
AcDbEntity
8
PERIMETER
100
AcDbLine
10
87.500000000000014
20
-46.999999999999993
30
0
11
87.500000000000014
21
-8.0000000000000071
31
0
0
ARC
5
1D8
100
AcDbEntity
8
PERIMETER
100
AcDbCircle
10
86.5
20
-8.0000000000000071
30
0
40
1.0000000000000142
210
0
220
-0
230
1
100
AcDbArc
50
0
51
90.000000000001634
0
LINE
5
1D9
100
AcDbEntity
8
PERIMETER
100
AcDbLine
10
86.499999999999972
20
-6.9999999999999929
30
0
11
79.500000000000014
21
-7.0000000000000107
31
0
0
ENDSEC
0
SECTION
2
OBJECTS
0
DICTIONARY
5
C
100
AcDbDictionary
3
ACAD_GROUP
350
D
3
ACAD_MLINESTYLE
350
17
0
DICTIONARY
5
D
100
AcDbDictionary
0
DICTIONARY
5
1A
330
C
100
AcDbDictionary
0
DICTIONARY
5
17
100
AcDbDictionary
0
ENDSEC
0
EOF
