0
SECTION
2
HEADER
9
$INSUNITS
70
4
9
$ACADVER
1
AC1014
9
$HANDSEED
5
FFFF
0
ENDSEC
0
SECTION
2
TABLES
0
TABLE
2
VPORT
5
8
100
AcDbSymbolTable
0
ENDTAB
0
TABLE
2
LTYPE
5
5
100
AcDbSymbolTable
70
2
0
LTYPE
5
14
100
AcDbSymbolTableRecord
100
AcDbLinetypeTableRecord
2
BYBLOCK
70
0
0
LTYPE
5
15
100
AcDbSymbolTableRecord
100
AcDbLinetypeTableRecord
2
BYLAYER
70
0
0
ENDTAB
0
TABLE
2
LAYER
5
2
100
AcDbSymbolTable
70
3
0
LAYER
5
50
100
AcDbSymbolTableRecord
100
AcDbLayerTableRecord
2
0
70
0
6
CONTINUOUS
0
LAYER
5
51
100
AcDbSymbolTableRecord
100
AcDbLayerTableRecord
2
CUTOUTS
70
0
62
1
6
CONTINUOUS
0
LAYER
5
52
100
AcDbSymbolTableRecord
100
AcDbLayerTableRecord
2
PERIMETER
70
0
62
5
6
CONTINUOUS
0
ENDTAB
0
TABLE
2
STYLE
5
3
100
AcDbSymbolTable
70
1
0
STYLE
5
11
100
AcDbSymbolTableRecord
100
AcDbTextStyleTableRecord
2
STANDARD
70
0
0
ENDTAB
0
TABLE
2
VIEW
5
6
100
AcDbSymbolTable
0
ENDTAB
0
TABLE
2
UCS
5
7
100
AcDbSymbolTable
0
ENDTAB
0
TABLE
2
APPID
5
9
100
AcDbSymbolTable
70
1
0
APPID
5
12
100
AcDbSymbolTableRecord
100
AcDbRegAppTableRecord
2
ACAD
70
0
0
ENDTAB
0
TABLE
2
DIMSTYLE
5
A
100
AcDbSymbolTable
0
ENDTAB
0
TABLE
2
BLOCK_RECORD
5
1
100
AcDbSymbolTable
70
2
0
BLOCK_RECORD
5
1F
100
AcDbSymbolTableRecord
100
AcDbBlockTableRecord
2
*MODEL_SPACE
0
BLOCK_RECORD
5
1B
100
AcDbSymbolTableRecord
100
AcDbBlockTableRecord
2
*PAPER_SPACE
0
ENDTAB
0
ENDSEC
0
SECTION
2
BLOCKS
0
BLOCK
5
20
100
AcDbEntity
100
AcDbBlockBegin
2
*MODEL_SPACE
0
ENDBLK
5
21
100
AcDbEntity
100
AcDbBlockEnd
0
BLOCK
5
1C
100
AcDbEntity
100
AcDbBlockBegin
2
*PAPER_SPACE
0
ENDBLK
5
1D
100
AcDbEntity
100
AcDbBlockEnd
0
ENDSEC
0
SECTION
2
ENTITIES
0
CIRCLE
5
100
100
AcDbEntity
8
CUTOUTS
100
AcDbCircle
10
84.500000000000028
20
45.999999999999986
30
0
40
1.0999999999999943
210
0
220
0
230
1
0
CIRCLE
5
101
100
AcDbEntity
8
CUTOUTS
100
AcDbCircle
10
-71.000000000000014
20
-46
30
0
40
1.1000000000000298
210
0
220
0
230
1
0
CIRCLE
5
102
100
AcDbEntity
8
CUTOUTS
100
AcDbCircle
10
4.4999999999999929
20
45.999999999999979
30
0
40
1.0999999999999943
210
0
220
0
230
1
0
CIRCLE
5
103
100
AcDbEntity
8
CUTOUTS
100
AcDbCircle
10
84.500000000000028
20
-46
30
0
40
1.0999999999999943
210
0
220
0
230
1
0
CIRCLE
5
104
100
AcDbEntity
8
CUTOUTS
100
AcDbCircle
10
6.7500000000000071
20
-46
30
0
40
1.0999999999999943
210
0
220
0
230
1
0
CIRCLE
5
105
100
AcDbEntity
8
CUTOUTS
100
AcDbCircle
10
-75.500000000000043
20
45.999999999999986
30
0
40
1.0999999999999943
210
0
220
0
230
1
0
LINE
5
106
100
AcDbEntity
8
CUTOUTS
100
AcDbLine
10
56.10000000000003
20
-3.5500000000000043
30
0
11
56.10000000000003
21
3.2999999999999874
31
0
0
LINE
5
107
100
AcDbEntity
8
CUTOUTS
100
AcDbLine
10
56.10000000000003
20
3.2999999999999874
30
0
11
57.449999999999974
21
3.2999999999999874
31
0
0
LINE
5
108
100
AcDbEntity
8
CUTOUTS
100
AcDbLine
10
57.449999999999974
20
3.2999999999999874
30
0
11
57.449999999999974
21
7.9499999999999948
31
0
0
LINE
5
109
100
AcDbEntity
8
CUTOUTS
100
AcDbLine
10
57.449999999999974
20
7.9499999999999948
30
0
11
61.05000000000004
21
7.9499999999999948
31
0
0
LINE
5
10A
100
AcDbEntity
8
CUTOUTS
100
AcDbLine
10
61.05000000000004
20
7.9499999999999948
30
0
11
61.05000000000004
21
3.2999999999999874
31
0
0
LINE
5
10B
100
AcDbEntity
8
CUTOUTS
100
AcDbLine
10
61.05000000000004
20
3.2999999999999874
30
0
11
62.399999999999949
21
3.2999999999999874
31
0
0
LINE
5
10C
100
AcDbEntity
8
CUTOUTS
100
AcDbLine
10
62.399999999999949
20
3.2999999999999874
30
0
11
62.399999999999949
21
-3.5500000000000043
31
0
0
LINE
5
10D
100
AcDbEntity
8
CUTOUTS
100
AcDbLine
10
62.399999999999949
20
-3.5500000000000043
30
0
11
56.10000000000003
21
-3.5500000000000043
31
0
0
LINE
5
10E
100
AcDbEntity
8
CUTOUTS
100
AcDbLine
10
-60.399999999999991
20
40.499999999999986
30
0
11
-60.399999999999991
21
26.499999999999993
31
0
0
LINE
5
10F
100
AcDbEntity
8
CUTOUTS
100
AcDbLine
10
-60.399999999999991
20
26.499999999999993
30
0
11
-74.600000000000009
21
26.499999999999993
31
0
0
LINE
5
110
100
AcDbEntity
8
CUTOUTS
100
AcDbLine
10
-74.600000000000009
20
26.499999999999993
30
0
11
-74.600000000000009
21
40.499999999999986
31
0
0
LINE
5
111
100
AcDbEntity
8
CUTOUTS
100
AcDbLine
10
-74.600000000000009
20
40.499999999999986
30
0
11
-60.399999999999991
21
40.499999999999986
31
0
0
LINE
5
112
100
AcDbEntity
8
CUTOUTS
100
AcDbLine
10
-13.150000000000013
20
-41.5
30
0
11
-27.349999999999994
21
-41.5
31
0
0
LINE
5
113
100
AcDbEntity
8
CUTOUTS
100
AcDbLine
10
-27.349999999999994
20
-41.5
30
0
11
-27.349999999999994
21
-27.500000000000007
31
0
0
LINE
5
114
100
AcDbEntity
8
CUTOUTS
100
AcDbLine
10
-27.349999999999994
20
-27.500000000000007
30
0
11
-13.150000000000013
21
-27.500000000000007
31
0
0
LINE
5
115
100
AcDbEntity
8
CUTOUTS
100
AcDbLine
10
-13.150000000000013
20
-27.500000000000007
30
0
11
-13.150000000000013
21
-41.5
31
0
0
LINE
5
116
100
AcDbEntity
8
CUTOUTS
100
AcDbLine
10
65.600000000000023
20
-27.500000000000007
30
0
11
65.600000000000023
21
-41.5
31
0
0
LINE
5
117
100
AcDbEntity
8
CUTOUTS
100
AcDbLine
10
65.600000000000023
20
-41.5
30
0
11
51.39999999999997
21
-41.5
31
0
0
LINE
5
118
100
AcDbEntity
8
CUTOUTS
100
AcDbLine
10
51.39999999999997
20
-41.5
30
0
11
51.39999999999997
21
-27.500000000000007
31
0
0
LINE
5
119
100
AcDbEntity
8
CUTOUTS
100
AcDbLine
10
51.39999999999997
20
-27.500000000000007
30
0
11
65.600000000000023
21
-27.500000000000007
31
0
0
LINE
5
11A
100
AcDbEntity
8
CUTOUTS
100
AcDbLine
10
15.399999999999991
20
-27.500000000000007
30
0
11
29.600000000000009
21
-27.500000000000007
31
0
0
LINE
5
11B
100
AcDbEntity
8
CUTOUTS
100
AcDbLine
10
29.600000000000009
20
-27.500000000000007
30
0
11
29.600000000000009
21
-41.5
31
0
0
LINE
5
11C
100
AcDbEntity
8
CUTOUTS
100
AcDbLine
10
29.600000000000009
20
-41.5
30
0
11
15.399999999999991
21
-41.5
31
0
0
LINE
5
11D
100
AcDbEntity
8
CUTOUTS
100
AcDbLine
10
15.399999999999991
20
-41.5
30
0
11
15.399999999999991
21
-27.500000000000007
31
0
0
LINE
5
11E
100
AcDbEntity
8
CUTOUTS
100
AcDbLine
10
54.350000000000023
20
6.4999999999999902
30
0
11
54.350000000000023
21
-7.5000000000000089
31
0
0
LINE
5
11F
100
AcDbEntity
8
CUTOUTS
100
AcDbLine
10
54.350000000000023
20
-7.5000000000000089
30
0
11
40.14999999999997
21
-7.5000000000000089
31
0
0
LINE
5
120
100
AcDbEntity
8
CUTOUTS
100
AcDbLine
10
40.14999999999997
20
-7.5000000000000089
30
0
11
40.14999999999997
21
6.4999999999999902
31
0
0
LINE
5
121
100
AcDbEntity
8
CUTOUTS
100
AcDbLine
10
40.14999999999997
20
6.4999999999999902
30
0
11
54.350000000000023
21
6.4999999999999902
31
0
0
LINE
5
122
100
AcDbEntity
8
CUTOUTS
100
AcDbLine
10
9.3500000000000227
20
-27.500000000000007
30
0
11
9.3500000000000227
21
-41.5
31
0
0
LINE
5
123
100
AcDbEntity
8
CUTOUTS
100
AcDbLine
10
9.3500000000000227
20
-41.5
30
0
11
-4.8500000000000298
21
-41.5
31
0
0
LINE
5
124
100
AcDbEntity
8
CUTOUTS
100
AcDbLine
10
-4.8500000000000298
20
-41.5
30
0
11
-4.8500000000000298
21
-27.500000000000007
31
0
0
LINE
5
125
100
AcDbEntity
8
CUTOUTS
100
AcDbLine
10
-4.8500000000000298
20
-27.500000000000007
30
0
11
9.3500000000000227
21
-27.500000000000007
31
0
0
LINE
5
126
100
AcDbEntity
8
CUTOUTS
100
AcDbLine
10
-10.899999999999999
20
-7.5000000000000089
30
0
11
-25.09999999999998
21
-7.5000000000000089
31
0
0
LINE
5
127
100
AcDbEntity
8
CUTOUTS
100
AcDbLine
10
-25.09999999999998
20
-7.5000000000000089
30
0
11
-25.09999999999998
21
6.4999999999999902
31
0
0
LINE
5
128
100
AcDbEntity
8
CUTOUTS
100
AcDbLine
10
-25.09999999999998
20
6.4999999999999902
30
0
11
-10.899999999999999
21
6.4999999999999902
31
0
0
LINE
5
129
100
AcDbEntity
8
CUTOUTS
100
AcDbLine
10
-10.899999999999999
20
6.4999999999999902
30
0
11
-10.899999999999999
21
-7.5000000000000089
31
0
0
LINE
5
12A
100
AcDbEntity
8
CUTOUTS
100
AcDbLine
10
16.10000000000003
20
-10.500000000000007
30
0
11
16.10000000000003
21
-24.500000000000011
31
0
0
LINE
5
12B
100
AcDbEntity
8
CUTOUTS
100
AcDbLine
10
16.10000000000003
20
-24.500000000000011
30
0
11
1.8999999999999773
21
-24.500000000000011
31
0
0
LINE
5
12C
100
AcDbEntity
8
CUTOUTS
100
AcDbLine
10
1.8999999999999773
20
-24.500000000000011
30
0
11
1.8999999999999773
21
-10.500000000000007
31
0
0
LINE
5
12D
100
AcDbEntity
8
CUTOUTS
100
AcDbLine
10
1.8999999999999773
20
-10.500000000000007
30
0
11
16.10000000000003
21
-10.500000000000007
31
0
0
LINE
5
12E
100
AcDbEntity
8
CUTOUTS
100
AcDbLine
10
-41.550000000000011
20
-26.050000000000004
30
0
11
-37.949999999999982
21
-26.050000000000004
31
0
0
LINE
5
12F
100
AcDbEntity
8
CUTOUTS
100
AcDbLine
10
-37.949999999999982
20
-26.050000000000004
30
0
11
-37.949999999999982
21
-30.70000000000001
31
0
0
LINE
5
130
100
AcDbEntity
8
CUTOUTS
100
AcDbLine
10
-37.949999999999982
20
-30.70000000000001
30
0
11
-36.600000000000001
21
-30.70000000000001
31
0
0
LINE
5
131
100
AcDbEntity
8
CUTOUTS
100
AcDbLine
10
-36.600000000000001
20
-30.70000000000001
30
0
11
-36.600000000000001
21
-37.550000000000011
31
0
0
LINE
5
132
100
AcDbEntity
8
CUTOUTS
100
AcDbLine
10
-36.600000000000001
20
-37.550000000000011
30
0
11
-42.899999999999991
21
-37.550000000000011
31
0
0
LINE
5
133
100
AcDbEntity
8
CUTOUTS
100
AcDbLine
10
-42.899999999999991
20
-37.550000000000011
30
0
11
-42.899999999999991
21
-30.70000000000001
31
0
0
LINE
5
134
100
AcDbEntity
8
CUTOUTS
100
AcDbLine
10
-42.899999999999991
20
-30.70000000000001
30
0
11
-41.550000000000011
21
-30.70000000000001
31
0
0
LINE
5
135
100
AcDbEntity
8
CUTOUTS
100
AcDbLine
10
-41.550000000000011
20
-30.70000000000001
30
0
11
-41.550000000000011
21
-26.050000000000004
31
0
0
LINE
5
136
100
AcDbEntity
8
CUTOUTS
100
AcDbLine
10
-69.400000000000006
20
9.4999999999999929
30
0
11
-83.599999999999994
21
9.4999999999999929
31
0
0
LINE
5
137
100
AcDbEntity
8
CUTOUTS
100
AcDbLine
10
-83.599999999999994
20
9.4999999999999929
30
0
11
-83.599999999999994
21
23.499999999999993
31
0
0
LINE
5
138
100
AcDbEntity
8
CUTOUTS
100
AcDbLine
10
-83.599999999999994
20
23.499999999999993
30
0
11
-69.400000000000006
21
23.499999999999993
31
0
0
LINE
5
139
100
AcDbEntity
8
CUTOUTS
100
AcDbLine
10
-69.400000000000006
20
23.499999999999993
30
0
11
-69.400000000000006
21
9.4999999999999929
31
0
0
LINE
5
13A
100
AcDbEntity
8
CUTOUTS
100
AcDbLine
10
34.350000000000023
20
37.299999999999997
30
0
11
35.700000000000003
21
37.299999999999997
31
0
0
LINE
5
13B
100
AcDbEntity
8
CUTOUTS
100
AcDbLine
10
35.700000000000003
20
37.299999999999997
30
0
11
35.700000000000003
21
41.949999999999996
31
0
0
LINE
5
13C
100
AcDbEntity
8
CUTOUTS
100
AcDbLine
10
35.700000000000003
20
41.949999999999996
30
0
11
39.299999999999997
21
41.949999999999996
31
0
0
LINE
5
13D
100
AcDbEntity
8
CUTOUTS
100
AcDbLine
10
39.299999999999997
20
41.949999999999996
30
0
11
39.299999999999997
21
37.299999999999997
31
0
0
LINE
5
13E
100
AcDbEntity
8
CUTOUTS
100
AcDbLine
10
39.299999999999997
20
37.299999999999997
30
0
11
40.649999999999977
21
37.299999999999997
31
0
0
LINE
5
13F
100
AcDbEntity
8
CUTOUTS
100
AcDbLine
10
40.649999999999977
20
37.299999999999997
30
0
11
40.649999999999977
21
30.449999999999989
31
0
0
LINE
5
140
100
AcDbEntity
8
CUTOUTS
100
AcDbLine
10
40.649999999999977
20
30.449999999999989
30
0
11
34.350000000000023
21
30.449999999999989
31
0
0
LINE
5
141
100
AcDbEntity
8
CUTOUTS
100
AcDbLine
10
34.350000000000023
20
30.449999999999989
30
0
11
34.350000000000023
21
37.299999999999997
31
0
0
LINE
5
142
100
AcDbEntity
8
CUTOUTS
100
AcDbLine
10
26.649999999999991
20
-10.500000000000007
30
0
11
40.850000000000009
21
-10.500000000000007
31
0
0
LINE
5
143
100
AcDbEntity
8
CUTOUTS
100
AcDbLine
10
40.850000000000009
20
-10.500000000000007
30
0
11
40.850000000000009
21
-24.500000000000011
31
0
0
LINE
5
144
100
AcDbEntity
8
CUTOUTS
100
AcDbLine
10
40.850000000000009
20
-24.500000000000011
30
0
11
26.649999999999991
21
-24.500000000000011
31
0
0
LINE
5
145
100
AcDbEntity
8
CUTOUTS
100
AcDbLine
10
26.649999999999991
20
-24.500000000000011
30
0
11
26.649999999999991
21
-10.500000000000007
31
0
0
LINE
5
146
100
AcDbEntity
8
CUTOUTS
100
AcDbLine
10
47.600000000000016
20
-41.5
30
0
11
33.399999999999963
21
-41.5
31
0
0
LINE
5
147
100
AcDbEntity
8
CUTOUTS
100
AcDbLine
10
33.399999999999963
20
-41.5
30
0
11
33.399999999999963
21
-27.500000000000007
31
0
0
LINE
5
148
100
AcDbEntity
8
CUTOUTS
100
AcDbLine
10
33.399999999999963
20
-27.500000000000007
30
0
11
47.600000000000016
21
-27.500000000000007
31
0
0
LINE
5
149
100
AcDbEntity
8
CUTOUTS
100
AcDbLine
10
47.600000000000016
20
-27.500000000000007
30
0
11
47.600000000000016
21
-41.5
31
0
0
LINE
5
14A
100
AcDbEntity
8
CUTOUTS
100
AcDbLine
10
-16.099999999999994
20
-10.500000000000007
30
0
11
-1.8999999999999773
21
-10.500000000000007
31
0
0
LINE
5
14B
100
AcDbEntity
8
CUTOUTS
100
AcDbLine
10
-1.8999999999999773
20
-10.500000000000007
30
0
11
-1.8999999999999773
21
-24.500000000000011
31
0
0
LINE
5
14C
100
AcDbEntity
8
CUTOUTS
100
AcDbLine
10
-1.8999999999999773
20
-24.500000000000011
30
0
11
-16.099999999999994
21
-24.500000000000011
31
0
0
LINE
5
14D
100
AcDbEntity
8
CUTOUTS
100
AcDbLine
10
-16.099999999999994
20
-24.500000000000011
30
0
11
-16.099999999999994
21
-10.500000000000007
31
0
0
LINE
5
14E
100
AcDbEntity
8
CUTOUTS
100
AcDbLine
10
2.6000000000000156
20
23.499999999999993
30
0
11
2.6000000000000156
21
9.4999999999999929
31
0
0
LINE
5
14F
100
AcDbEntity
8
CUTOUTS
100
AcDbLine
10
2.6000000000000156
20
9.4999999999999929
30
0
11
-11.600000000000001
21
9.4999999999999929
31
0
0
LINE
5
150
100
AcDbEntity
8
CUTOUTS
100
AcDbLine
10
-11.600000000000001
20
9.4999999999999929
30
0
11
-11.600000000000001
21
23.499999999999993
31
0
0
LINE
5
151
100
AcDbEntity
8
CUTOUTS
100
AcDbLine
10
-11.600000000000001
20
23.499999999999993
30
0
11
2.6000000000000156
21
23.499999999999993
31
0
0
LINE
5
152
100
AcDbEntity
8
CUTOUTS
100
AcDbLine
10
-43.099999999999987
20
-7.5000000000000089
30
0
11
-43.099999999999987
21
6.4999999999999902
31
0
0
LINE
5
153
100
AcDbEntity
8
CUTOUTS
100
AcDbLine
10
-43.099999999999987
20
6.4999999999999902
30
0
11
-28.900000000000006
21
6.4999999999999902
31
0
0
LINE
5
154
100
AcDbEntity
8
CUTOUTS
100
AcDbLine
10
-28.900000000000006
20
6.4999999999999902
30
0
11
-28.900000000000006
21
-7.5000000000000089
31
0
0
LINE
5
155
100
AcDbEntity
8
CUTOUTS
100
AcDbLine
10
-28.900000000000006
20
-7.5000000000000089
30
0
11
-43.099999999999987
21
-7.5000000000000089
31
0
0
LINE
5
156
100
AcDbEntity
8
CUTOUTS
100
AcDbLine
10
-44.649999999999999
20
-41.5
30
0
11
-58.84999999999998
21
-41.5
31
0
0
LINE
5
157
100
AcDbEntity
8
CUTOUTS
100
AcDbLine
10
-58.84999999999998
20
-41.5
30
0
11
-58.84999999999998
21
-27.500000000000007
31
0
0
LINE
5
158
100
AcDbEntity
8
CUTOUTS
100
AcDbLine
10
-58.84999999999998
20
-27.500000000000007
30
0
11
-44.649999999999999
21
-27.500000000000007
31
0
0
LINE
5
159
100
AcDbEntity
8
CUTOUTS
100
AcDbLine
10
-44.649999999999999
20
-27.500000000000007
30
0
11
-44.649999999999999
21
-41.5
31
0
0
LINE
5
15A
100
AcDbEntity
8
CUTOUTS
100
AcDbLine
10
-65.599999999999994
20
23.499999999999993
30
0
11
-51.400000000000006
21
23.499999999999993
31
0
0
LINE
5
15B
100
AcDbEntity
8
CUTOUTS
100
AcDbLine
10
-51.400000000000006
20
23.499999999999993
30
0
11
-51.400000000000006
21
9.4999999999999929
31
0
0
LINE
5
15C
100
AcDbEntity
8
CUTOUTS
100
AcDbLine
10
-51.400000000000006
20
9.4999999999999929
30
0
11
-65.599999999999994
21
9.4999999999999929
31
0
0
LINE
5
15D
100
AcDbEntity
8
CUTOUTS
100
AcDbLine
10
-65.599999999999994
20
9.4999999999999929
30
0
11
-65.599999999999994
21
23.499999999999993
31
0
0
LINE
5
15E
100
AcDbEntity
8
CUTOUTS
100
AcDbLine
10
20.600000000000023
20
9.4999999999999929
30
0
11
6.3999999999999702
21
9.4999999999999929
31
0
0
LINE
5
15F
100
AcDbEntity
8
CUTOUTS
100
AcDbLine
10
6.3999999999999702
20
9.4999999999999929
30
0
11
6.3999999999999702
21
23.499999999999993
31
0
0
LINE
5
160
100
AcDbEntity
8
CUTOUTS
100
AcDbLine
10
6.3999999999999702
20
23.499999999999993
30
0
11
20.600000000000023
21
23.499999999999993
31
0
0
LINE
5
161
100
AcDbEntity
8
CUTOUTS
100
AcDbLine
10
20.600000000000023
20
23.499999999999993
30
0
11
20.600000000000023
21
9.4999999999999929
31
0
0
LINE
5
162
100
AcDbEntity
8
CUTOUTS
100
AcDbLine
10
69.399999999999977
20
-41.5
30
0
11
69.399999999999977
21
-27.500000000000007
31
0
0
LINE
5
163
100
AcDbEntity
8
CUTOUTS
100
AcDbLine
10
69.399999999999977
20
-27.500000000000007
30
0
11
83.599999999999994
21
-27.500000000000007
31
0
0
LINE
5
164
100
AcDbEntity
8
CUTOUTS
100
AcDbLine
10
83.599999999999994
20
-27.500000000000007
30
0
11
83.599999999999994
21
-41.5
31
0
0
LINE
5
165
100
AcDbEntity
8
CUTOUTS
100
AcDbLine
10
83.599999999999994
20
-41.5
30
0
11
69.399999999999977
21
-41.5
31
0
0
LINE
5
166
100
AcDbEntity
8
CUTOUTS
100
AcDbLine
10
-2.6000000000000156
20
40.499999999999986
30
0
11
11.600000000000037
21
40.499999999999986
31
0
0
LINE
5
167
100
AcDbEntity
8
CUTOUTS
100
AcDbLine
10
11.600000000000037
20
40.499999999999986
30
0
11
11.600000000000037
21
26.499999999999993
31
0
0
LINE
5
168
100
AcDbEntity
8
CUTOUTS
100
AcDbLine
10
11.600000000000037
20
26.499999999999993
30
0
11
-2.6000000000000156
21
26.499999999999993
31
0
0
LINE
5
169
100
AcDbEntity
8
CUTOUTS
100
AcDbLine
10
-2.6000000000000156
20
26.499999999999993
30
0
11
-2.6000000000000156
21
40.499999999999986
31
0
0
LINE
5
16A
100
AcDbEntity
8
CUTOUTS
100
AcDbLine
10
-60.599999999999987
20
-37.550000000000011
30
0
11
-66.900000000000006
21
-37.550000000000011
31
0
0
LINE
5
16B
100
AcDbEntity
8
CUTOUTS
100
AcDbLine
10
-66.900000000000006
20
-37.550000000000011
30
0
11
-66.900000000000006
21
-30.70000000000001
31
0
0
LINE
5
16C
100
AcDbEntity
8
CUTOUTS
100
AcDbLine
10
-66.900000000000006
20
-30.70000000000001
30
0
11
-65.549999999999997
21
-30.70000000000001
31
0
0
LINE
5
16D
100
AcDbEntity
8
CUTOUTS
100
AcDbLine
10
-65.549999999999997
20
-30.70000000000001
30
0
11
-65.549999999999997
21
-26.050000000000004
31
0
0
LINE
5
16E
100
AcDbEntity
8
CUTOUTS
100
AcDbLine
10
-65.549999999999997
20
-26.050000000000004
30
0
11
-61.950000000000003
21
-26.050000000000004
31
0
0
LINE
5
16F
100
AcDbEntity
8
CUTOUTS
100
AcDbLine
10
-61.950000000000003
20
-26.050000000000004
30
0
11
-61.950000000000003
21
-30.70000000000001
31
0
0
LINE
5
170
100
AcDbEntity
8
CUTOUTS
100
AcDbLine
10
-61.950000000000003
20
-30.70000000000001
30
0
11
-60.599999999999987
21
-30.70000000000001
31
0
0
LINE
5
171
100
AcDbEntity
8
CUTOUTS
100
AcDbLine
10
-60.599999999999987
20
-30.70000000000001
30
0
11
-60.599999999999987
21
-37.550000000000011
31
0
0
LINE
5
172
100
AcDbEntity
8
CUTOUTS
100
AcDbLine
10
-7.1000000000000085
20
6.4999999999999902
30
0
11
7.1000000000000085
21
6.4999999999999902
31
0
0
LINE
5
173
100
AcDbEntity
8
CUTOUTS
100
AcDbLine
10
7.1000000000000085
20
6.4999999999999902
30
0
11
7.1000000000000085
21
-7.5000000000000089
31
0
0
LINE
5
174
100
AcDbEntity
8
CUTOUTS
100
AcDbLine
10
7.1000000000000085
20
-7.5000000000000089
30
0
11
-7.1000000000000085
21
-7.5000000000000089
31
0
0
LINE
5
175
100
AcDbEntity
8
CUTOUTS
100
AcDbLine
10
-7.1000000000000085
20
-7.5000000000000089
30
0
11
-7.1000000000000085
21
6.4999999999999902
31
0
0
LINE
5
176
100
AcDbEntity
8
CUTOUTS
100
AcDbLine
10
10.899999999999963
20
6.4999999999999902
30
0
11
25.100000000000016
21
6.4999999999999902
31
0
0
LINE
5
177
100
AcDbEntity
8
CUTOUTS
100
AcDbLine
10
25.100000000000016
20
6.4999999999999902
30
0
11
25.100000000000016
21
-7.5000000000000089
31
0
0
LINE
5
178
100
AcDbEntity
8
CUTOUTS
100
AcDbLine
10
25.100000000000016
20
-7.5000000000000089
30
0
11
10.899999999999963
21
-7.5000000000000089
31
0
0
LINE
5
179
100
AcDbEntity
8
CUTOUTS
100
AcDbLine
10
10.899999999999963
20
-7.5000000000000089
30
0
11
10.899999999999963
21
6.4999999999999902
31
0
0
LINE
5
17A
100
AcDbEntity
8
CUTOUTS
100
AcDbLine
10
-37.899999999999991
20
-10.500000000000007
30
0
11
-37.899999999999991
21
-24.500000000000011
31
0
0
LINE
5
17B
100
AcDbEntity
8
CUTOUTS
100
AcDbLine
10
-37.899999999999991
20
-24.500000000000011
30
0
11
-52.100000000000009
21
-24.500000000000011
31
0
0
LINE
5
17C
100
AcDbEntity
8
CUTOUTS
100
AcDbLine
10
-52.100000000000009
20
-24.500000000000011
30
0
11
-52.100000000000009
21
-10.500000000000007
31
0
0
LINE
5
17D
100
AcDbEntity
8
CUTOUTS
100
AcDbLine
10
-52.100000000000009
20
-10.500000000000007
30
0
11
-37.899999999999991
21
-10.500000000000007
31
0
0
LINE
5
17E
100
AcDbEntity
8
CUTOUTS
100
AcDbLine
10
-6.4000000000000057
20
26.499999999999993
30
0
11
-20.599999999999987
21
26.499999999999993
31
0
0
LINE
5
17F
100
AcDbEntity
8
CUTOUTS
100
AcDbLine
10
-20.599999999999987
20
26.499999999999993
30
0
11
-20.599999999999987
21
40.499999999999986
31
0
0
LINE
5
180
100
AcDbEntity
8
CUTOUTS
100
AcDbLine
10
-20.599999999999987
20
40.499999999999986
30
0
11
-6.4000000000000057
21
40.499999999999986
31
0
0
LINE
5
181
100
AcDbEntity
8
CUTOUTS
100
AcDbLine
10
-6.4000000000000057
20
40.499999999999986
30
0
11
-6.4000000000000057
21
26.499999999999993
31
0
0
LINE
5
182
100
AcDbEntity
8
CUTOUTS
100
AcDbLine
10
56.600000000000037
20
40.499999999999986
30
0
11
56.600000000000037
21
26.499999999999993
31
0
0
LINE
5
183
100
AcDbEntity
8
CUTOUTS
100
AcDbLine
10
56.600000000000037
20
26.499999999999993
30
0
11
42.399999999999984
21
26.499999999999993
31
0
0
LINE
5
184
100
AcDbEntity
8
CUTOUTS
100
AcDbLine
10
42.399999999999984
20
26.499999999999993
30
0
11
42.399999999999984
21
40.499999999999986
31
0
0
LINE
5
185
100
AcDbEntity
8
CUTOUTS
100
AcDbLine
10
42.399999999999984
20
40.499999999999986
30
0
11
56.600000000000037
21
40.499999999999986
31
0
0
LINE
5
186
100
AcDbEntity
8
CUTOUTS
100
AcDbLine
10
15.399999999999991
20
40.499999999999986
30
0
11
29.600000000000009
21
40.499999999999986
31
0
0
LINE
5
187
100
AcDbEntity
8
CUTOUTS
100
AcDbLine
10
29.600000000000009
20
40.499999999999986
30
0
11
29.600000000000009
21
26.499999999999993
31
0
0
LINE
5
188
100
AcDbEntity
8
CUTOUTS
100
AcDbLine
10
29.600000000000009
20
26.499999999999993
30
0
11
15.399999999999991
21
26.499999999999993
31
0
0
LINE
5
189
100
AcDbEntity
8
CUTOUTS
100
AcDbLine
10
15.399999999999991
20
26.499999999999993
30
0
11
15.399999999999991
21
40.499999999999986
31
0
0
LINE
5
18A
100
AcDbEntity
8
CUTOUTS
100
AcDbLine
10
38.399999999999963
20
3.2999999999999874
30
0
11
38.399999999999963
21
-3.5500000000000043
31
0
0
LINE
5
18B
100
AcDbEntity
8
CUTOUTS
100
AcDbLine
10
38.399999999999963
20
-3.5500000000000043
30
0
11
32.100000000000009
21
-3.5500000000000043
31
0
0
LINE
5
18C
100
AcDbEntity
8
CUTOUTS
100
AcDbLine
10
32.100000000000009
20
-3.5500000000000043
30
0
11
32.100000000000009
21
3.2999999999999874
31
0
0
LINE
5
18D
100
AcDbEntity
8
CUTOUTS
100
AcDbLine
10
32.100000000000009
20
3.2999999999999874
30
0
11
33.449999999999989
21
3.2999999999999874
31
0
0
LINE
5
18E
100
AcDbEntity
8
CUTOUTS
100
AcDbLine
10
33.449999999999989
20
3.2999999999999874
30
0
11
33.449999999999989
21
7.9499999999999948
31
0
0
LINE
5
18F
100
AcDbEntity
8
CUTOUTS
100
AcDbLine
10
33.449999999999989
20
7.9499999999999948
30
0
11
37.050000000000018
21
7.9499999999999948
31
0
0
LINE
5
190
100
AcDbEntity
8
CUTOUTS
100
AcDbLine
10
37.050000000000018
20
7.9499999999999948
30
0
11
37.050000000000018
21
3.2999999999999874
31
0
0
LINE
5
191
100
AcDbEntity
8
CUTOUTS
100
AcDbLine
10
37.050000000000018
20
3.2999999999999874
30
0
11
38.399999999999963
21
3.2999999999999874
31
0
0
LINE
5
192
100
AcDbEntity
8
CUTOUTS
100
AcDbLine
10
69.399999999999977
20
6.4999999999999902
30
0
11
83.599999999999994
21
6.4999999999999902
31
0
0
LINE
5
193
100
AcDbEntity
8
CUTOUTS
100
AcDbLine
10
83.599999999999994
20
6.4999999999999902
30
0
11
83.599999999999994
21
-7.5000000000000089
31
0
0
LINE
5
194
100
AcDbEntity
8
CUTOUTS
100
AcDbLine
10
83.599999999999994
20
-7.5000000000000089
30
0
11
69.399999999999977
21
-7.5000000000000089
31
0
0
LINE
5
195
100
AcDbEntity
8
CUTOUTS
100
AcDbLine
10
69.399999999999977
20
-7.5000000000000089
30
0
11
69.399999999999977
21
6.4999999999999902
31
0
0
LINE
5
196
100
AcDbEntity
8
CUTOUTS
100
AcDbLine
10
-42.40000000000002
20
26.499999999999993
30
0
11
-56.600000000000001
21
26.499999999999993
31
0
0
LINE
5
197
100
AcDbEntity
8
CUTOUTS
100
AcDbLine
10
-56.600000000000001
20
26.499999999999993
30
0
11
-56.600000000000001
21
40.499999999999986
31
0
0
LINE
5
198
100
AcDbEntity
8
CUTOUTS
100
AcDbLine
10
-56.600000000000001
20
40.499999999999986
30
0
11
-42.40000000000002
21
40.499999999999986
31
0
0
LINE
5
199
100
AcDbEntity
8
CUTOUTS
100
AcDbLine
10
-42.40000000000002
20
40.499999999999986
30
0
11
-42.40000000000002
21
26.499999999999993
31
0
0
LINE
5
19A
100
AcDbEntity
8
CUTOUTS
100
AcDbLine
10
69.399999999999977
20
-10.500000000000007
30
0
11
83.599999999999994
21
-10.500000000000007
31
0
0
LINE
5
19B
100
AcDbEntity
8
CUTOUTS
100
AcDbLine
10
83.599999999999994
20
-10.500000000000007
30
0
11
83.599999999999994
21
-24.500000000000011
31
0
0
LINE
5
19C
100
AcDbEntity
8
CUTOUTS
100
AcDbLine
10
83.599999999999994
20
-24.500000000000011
30
0
11
69.399999999999977
21
-24.500000000000011
31
0
0
LINE
5
19D
100
AcDbEntity
8
CUTOUTS
100
AcDbLine
10
69.399999999999977
20
-24.500000000000011
30
0
11
69.399999999999977
21
-10.500000000000007
31
0
0
LINE
5
19E
100
AcDbEntity
8
CUTOUTS
100
AcDbLine
10
64.649999999999963
20
30.449999999999989
30
0
11
58.350000000000009
21
30.449999999999989
31
0
0
LINE
5
19F
100
AcDbEntity
8
CUTOUTS
100
AcDbLine
10
58.350000000000009
20
30.449999999999989
30
0
11
58.350000000000009
21
37.299999999999997
31
0
0
LINE
5
1A0
100
AcDbEntity
8
CUTOUTS
100
AcDbLine
10
58.350000000000009
20
37.299999999999997
30
0
11
59.699999999999989
21
37.299999999999997
31
0
0
LINE
5
1A1
100
AcDbEntity
8
CUTOUTS
100
AcDbLine
10
59.699999999999989
20
37.299999999999997
30
0
11
59.699999999999989
21
41.949999999999996
31
0
0
LINE
5
1A2
100
AcDbEntity
8
CUTOUTS
100
AcDbLine
10
59.699999999999989
20
41.949999999999996
30
0
11
63.299999999999983
21
41.949999999999996
31
0
0
LINE
5
1A3
100
AcDbEntity
8
CUTOUTS
100
AcDbLine
10
63.299999999999983
20
41.949999999999996
30
0
11
63.299999999999983
21
37.299999999999997
31
0
0
LINE
5
1A4
100
AcDbEntity
8
CUTOUTS
100
AcDbLine
10
63.299999999999983
20
37.299999999999997
30
0
11
64.649999999999963
21
37.299999999999997
31
0
0
LINE
5
1A5
100
AcDbEntity
8
CUTOUTS
100
AcDbLine
10
64.649999999999963
20
37.299999999999997
30
0
11
64.649999999999963
21
30.449999999999989
31
0
0
LINE
5
1A6
100
AcDbEntity
8
CUTOUTS
100
AcDbLine
10
-29.600000000000009
20
23.499999999999993
30
0
11
-15.399999999999991
21
23.499999999999993
31
0
0
LINE
5
1A7
100
AcDbEntity
8
CUTOUTS
100
AcDbLine
10
-15.399999999999991
20
23.499999999999993
30
0
11
-15.399999999999991
21
9.4999999999999929
31
0
0
LINE
5
1A8
100
AcDbEntity
8
CUTOUTS
100
AcDbLine
10
-15.399999999999991
20
9.4999999999999929
30
0
11
-29.600000000000009
21
9.4999999999999929
31
0
0
LINE
5
1A9
100
AcDbEntity
8
CUTOUTS
100
AcDbLine
10
-29.600000000000009
20
9.4999999999999929
30
0
11
-29.600000000000009
21
23.499999999999993
31
0
0
LINE
5
1AA
100
AcDbEntity
8
CUTOUTS
100
AcDbLine
10
61.099999999999994
20
9.4999999999999929
30
0
11
46.899999999999977
21
9.4999999999999929
31
0
0
LINE
5
1AB
100
AcDbEntity
8
CUTOUTS
100
AcDbLine
10
46.899999999999977
20
9.4999999999999929
30
0
11
46.899999999999977
21
23.499999999999993
31
0
0
LINE
5
1AC
100
AcDbEntity
8
CUTOUTS
100
AcDbLine
10
46.899999999999977
20
23.499999999999993
30
0
11
61.099999999999994
21
23.499999999999993
31
0
0
LINE
5
1AD
100
AcDbEntity
8
CUTOUTS
100
AcDbLine
10
61.099999999999994
20
23.499999999999993
30
0
11
61.099999999999994
21
9.4999999999999929
31
0
0
LINE
5
1AE
100
AcDbEntity
8
CUTOUTS
100
AcDbLine
10
69.399999999999977
20
23.499999999999993
30
0
11
83.599999999999994
21
23.499999999999993
31
0
0
LINE
5
1AF
100
AcDbEntity
8
CUTOUTS
100
AcDbLine
10
83.599999999999994
20
23.499999999999993
30
0
11
83.599999999999994
21
9.4999999999999929
31
0
0
LINE
5
1B0
100
AcDbEntity
8
CUTOUTS
100
AcDbLine
10
83.599999999999994
20
9.4999999999999929
30
0
11
69.399999999999977
21
9.4999999999999929
31
0
0
LINE
5
1B1
100
AcDbEntity
8
CUTOUTS
100
AcDbLine
10
69.399999999999977
20
9.4999999999999929
30
0
11
69.399999999999977
21
23.499999999999993
31
0
0
LINE
5
1B2
100
AcDbEntity
8
CUTOUTS
100
AcDbLine
10
-55.899999999999999
20
-10.500000000000007
30
0
11
-55.899999999999999
21
-24.500000000000011
31
0
0
LINE
5
1B3
100
AcDbEntity
8
CUTOUTS
100
AcDbLine
10
-55.899999999999999
20
-24.500000000000011
30
0
11
-70.100000000000023
21
-24.500000000000011
31
0
0
LINE
5
1B4
100
AcDbEntity
8
CUTOUTS
100
AcDbLine
10
-70.100000000000023
20
-24.500000000000011
30
0
11
-70.100000000000023
21
-10.500000000000007
31
0
0
LINE
5
1B5
100
AcDbEntity
8
CUTOUTS
100
AcDbLine
10
-70.100000000000023
20
-10.500000000000007
30
0
11
-55.899999999999999
21
-10.500000000000007
31
0
0
LINE
5
1B6
100
AcDbEntity
8
CUTOUTS
100
AcDbLine
10
-34.100000000000001
20
-10.500000000000007
30
0
11
-19.90000000000002
21
-10.500000000000007
31
0
0
LINE
5
1B7
100
AcDbEntity
8
CUTOUTS
100
AcDbLine
10
-19.90000000000002
20
-10.500000000000007
30
0
11
-19.90000000000002
21
-24.500000000000011
31
0
0
LINE
5
1B8
100
AcDbEntity
8
CUTOUTS
100
AcDbLine
10
-19.90000000000002
20
-24.500000000000011
30
0
11
-34.100000000000001
21
-24.500000000000011
31
0
0
LINE
5
1B9
100
AcDbEntity
8
CUTOUTS
100
AcDbLine
10
-34.100000000000001
20
-24.500000000000011
30
0
11
-34.100000000000001
21
-10.500000000000007
31
0
0
LINE
5
1BA
100
AcDbEntity
8
CUTOUTS
100
AcDbLine
10
51.39999999999997
20
-24.500000000000011
30
0
11
51.39999999999997
21
-10.500000000000007
31
0
0
LINE
5
1BB
100
AcDbEntity
8
CUTOUTS
100
AcDbLine
10
51.39999999999997
20
-10.500000000000007
30
0
11
65.600000000000023
21
-10.500000000000007
31
0
0
LINE
5
1BC
100
AcDbEntity
8
CUTOUTS
100
AcDbLine
10
65.600000000000023
20
-10.500000000000007
30
0
11
65.600000000000023
21
-24.500000000000011
31
0
0
LINE
5
1BD
100
AcDbEntity
8
CUTOUTS
100
AcDbLine
10
65.600000000000023
20
-24.500000000000011
30
0
11
51.39999999999997
21
-24.500000000000011
31
0
0
LINE
5
1BE
100
AcDbEntity
8
CUTOUTS
100
AcDbLine
10
-64.90000000000002
20
6.4999999999999902
30
0
11
-64.90000000000002
21
-7.5000000000000089
31
0
0
LINE
5
1BF
100
AcDbEntity
8
CUTOUTS
100
AcDbLine
10
-64.90000000000002
20
-7.5000000000000089
30
0
11
-79.099999999999994
21
-7.5000000000000089
31
0
0
LINE
5
1C0
100
AcDbEntity
8
CUTOUTS
100
AcDbLine
10
-79.099999999999994
20
-7.5000000000000089
30
0
11
-79.099999999999994
21
6.4999999999999902
31
0
0
LINE
5
1C1
100
AcDbEntity
8
CUTOUTS
100
AcDbLine
10
-79.099999999999994
20
6.4999999999999902
30
0
11
-64.90000000000002
21
6.4999999999999902
31
0
0
LINE
5
1C2
100
AcDbEntity
8
CUTOUTS
100
AcDbLine
10
-61.099999999999994
20
6.4999999999999902
30
0
11
-46.900000000000013
21
6.4999999999999902
31
0
0
LINE
5
1C3
100
AcDbEntity
8
CUTOUTS
100
AcDbLine
10
-46.900000000000013
20
6.4999999999999902
30
0
11
-46.900000000000013
21
-7.5000000000000089
31
0
0
LINE
5
1C4
100
AcDbEntity
8
CUTOUTS
100
AcDbLine
10
-46.900000000000013
20
-7.5000000000000089
30
0
11
-61.099999999999994
21
-7.5000000000000089
31
0
0
LINE
5
1C5
100
AcDbEntity
8
CUTOUTS
100
AcDbLine
10
-61.099999999999994
20
-7.5000000000000089
30
0
11
-61.099999999999994
21
6.4999999999999902
31
0
0
LINE
5
1C6
100
AcDbEntity
8
CUTOUTS
100
AcDbLine
10
-38.599999999999994
20
26.499999999999993
30
0
11
-38.599999999999994
21
40.499999999999986
31
0
0
LINE
5
1C7
100
AcDbEntity
8
CUTOUTS
100
AcDbLine
10
-38.599999999999994
20
40.499999999999986
30
0
11
-24.400000000000013
21
40.499999999999986
31
0
0
LINE
5
1C8
100
AcDbEntity
8
CUTOUTS
100
AcDbLine
10
-24.400000000000013
20
40.499999999999986
30
0
11
-24.400000000000013
21
26.499999999999993
31
0
0
LINE
5
1C9
100
AcDbEntity
8
CUTOUTS
100
AcDbLine
10
-24.400000000000013
20
26.499999999999993
30
0
11
-38.599999999999994
21
26.499999999999993
31
0
0
LINE
5
1CA
100
AcDbEntity
8
CUTOUTS
100
AcDbLine
10
83.599999999999994
20
40.499999999999986
30
0
11
83.599999999999994
21
26.499999999999993
31
0
0
LINE
5
1CB
100
AcDbEntity
8
CUTOUTS
100
AcDbLine
10
83.599999999999994
20
26.499999999999993
30
0
11
69.399999999999977
21
26.499999999999993
31
0
0
LINE
5
1CC
100
AcDbEntity
8
CUTOUTS
100
AcDbLine
10
69.399999999999977
20
26.499999999999993
30
0
11
69.399999999999977
21
40.499999999999986
31
0
0
LINE
5
1CD
100
AcDbEntity
8
CUTOUTS
100
AcDbLine
10
69.399999999999977
20
40.499999999999986
30
0
11
83.599999999999994
21
40.499999999999986
31
0
0
LINE
5
1CE
100
AcDbEntity
8
CUTOUTS
100
AcDbLine
10
-47.59999999999998
20
9.4999999999999929
30
0
11
-47.59999999999998
21
23.499999999999993
31
0
0
LINE
5
1CF
100
AcDbEntity
8
CUTOUTS
100
AcDbLine
10
-47.59999999999998
20
23.499999999999993
30
0
11
-33.399999999999999
21
23.499999999999993
31
0
0
LINE
5
1D0
100
AcDbEntity
8
CUTOUTS
100
AcDbLine
10
-33.399999999999999
20
23.499999999999993
30
0
11
-33.399999999999999
21
9.4999999999999929
31
0
0
LINE
5
1D1
100
AcDbEntity
8
CUTOUTS
100
AcDbLine
10
-33.399999999999999
20
9.4999999999999929
30
0
11
-47.59999999999998
21
9.4999999999999929
31
0
0
LINE
5
1D2
100
AcDbEntity
8
CUTOUTS
100
AcDbLine
10
24.399999999999977
20
9.4999999999999929
30
0
11
24.399999999999977
21
23.499999999999993
31
0
0
LINE
5
1D3
100
AcDbEntity
8
CUTOUTS
100
AcDbLine
10
24.399999999999977
20
23.499999999999993
30
0
11
38.60000000000003
21
23.499999999999993
31
0
0
LINE
5
1D4
100
AcDbEntity
8
CUTOUTS
100
AcDbLine
10
38.60000000000003
20
23.499999999999993
30
0
11
38.60000000000003
21
9.4999999999999929
31
0
0
LINE
5
1D5
100
AcDbEntity
8
CUTOUTS
100
AcDbLine
10
38.60000000000003
20
9.4999999999999929
30
0
11
24.399999999999977
21
9.4999999999999929
31
0
0
LINE
5
1D6
100
AcDbEntity
8
PERIMETER
100
AcDbLine
10
-83
20
4.9999999999999822
30
0
11
-82.999999999999972
21
-10.000000000000018
31
0
0
ARC
5
1D7
100
AcDbEntity
8
PERIMETER
100
AcDbCircle
10
-82
20
-10.000000000000018
30
0
40
0.99999999999997868
210
0
220
0
230
1
100
AcDbArc
50
180
51
270.00000000000244
0
LINE
5
1D8
100
AcDbEntity
8
PERIMETER
100
AcDbLine
10
-81.999999999999957
20
-10.999999999999996
30
0
11
-75
21
-11.000000000000014
31
0
0
ARC
5
1D9
100
AcDbEntity
8
PERIMETER
100
AcDbCircle
10
-75
20
-12.000000000000011
30
0
40
1.0000000000000142
210
0
220
-0
230
1
100
AcDbArc
50
0
51
90
0
LINE
5
1DA
100
AcDbEntity
8
PERIMETER
100
AcDbLine
10
-73.999999999999986
20
-12.000000000000011
30
0
11
-73.999999999999986
21
-47.000000000000014
31
0
0
ARC
5
1DB
100
AcDbEntity
8
PERIMETER
100
AcDbCircle
10
-72
20
-47.000000000000014
30
0
40
1.9999999999999929
210
0
220
0
230
1
100
AcDbArc
50
180
51
270
0
LINE
5
1DC
100
AcDbEntity
8
PERIMETER
100
AcDbLine
10
-72
20
-49
30
0
11
84.500000000000028
21
-49
31
0
0
ARC
5
1DD
100
AcDbEntity
8
PERIMETER
100
AcDbCircle
10
84.500000000000099
20
-46.000000000000099
30
0
40
2.9999999999999005
210
0
220
0
230
1
100
AcDbArc
50
-90.000000000001378
51
0
0
LINE
5
1DE
100
AcDbEntity
8
PERIMETER
100
AcDbLine
10
87.5
20
-45.999999999999979
30
0
11
87.5
21
46
31
0
0
ARC
5
1DF
100
AcDbEntity
8
PERIMETER
100
AcDbCircle
10
84.500000000000171
20
46.000000000000121
30
0
40
2.9999999999998295
210
-0
220
0
230
1
100
AcDbArc
50
0
51
90.000000000002714
0
LINE
5
1E0
100
AcDbEntity
8
PERIMETER
100
AcDbLine
10
84.500000000000028
20
48.99999999999995
30
0
11
-76.500000000000028
21
48.999999999999993
31
0
0
ARC
5
1E1
100
AcDbEntity
8
PERIMETER
100
AcDbCircle
10
-76.500000000000028
20
46.999999999999986
30
0
40
2.0000000000000018
210
0
220
-0
230
1
100
AcDbArc
50
90
51
180
0
LINE
5
1E2
100
AcDbEntity
8
PERIMETER
100
AcDbLine
10
-78.500000000000014
20
46.999999999999993
30
0
11
-78.500000000000014
21
27.999999999999989
31
0
0
ARC
5
1E3
100
AcDbEntity
8
PERIMETER
100
AcDbCircle
10
-79.500000000000028
20
27.999999999999989
30
0
40
0.99999999999999645
210
-0
220
0
230
1
100
AcDbArc
50
-90
51
0
0
LINE
5
1E4
100
AcDbEntity
8
PERIMETER
100
AcDbLine
10
-79.500000000000028
20
26.999999999999993
30
0
11
-86.499999999999986
21
26.999999999999993
31
0
0
ARC
5
1E5
100
AcDbEntity
8
PERIMETER
100
AcDbCircle
10
-86.500000000000028
20
25.999999999999986
30
0
40
1.0000000000000053
210
0
220
-0
230
1
100
AcDbArc
50
89.999999999997556
51
180
0
LINE
5
1E6
100
AcDbEntity
8
PERIMETER
100
AcDbLine
10
-87.500000000000028
20
25.999999999999986
30
0
11
-87.5
21
6.9999999999999885
31
0
0
ARC
5
1E7
100
AcDbEntity
8
PERIMETER
100
AcDbCircle
10
-86.499999999999986
20
6.9999999999999885
30
0
40
1.0000000000000142
210
0
220
0
230
1
100
AcDbArc
50
180
51
270
0
LINE
5
1E8
100
AcDbEntity
8
PERIMETER
100
AcDbLine
10
-86.499999999999986
20
5.9999999999999742
30
0
11
-84.000000000000028
21
5.9999999999999876
31
0
0
ARC
5
1E9
100
AcDbEntity
8
PERIMETER
100
AcDbCircle
10
-84.000000000000028
20
4.9999999999999822
30
0
40
1.0000000000000142
210
0
220
-0
230
1
100
AcDbArc
50
0
51
90
0
ENDSEC
0
SECTION
2
OBJECTS
0
DICTIONARY
5
C
100
AcDbDictionary
3
ACAD_GROUP
350
D
3
ACAD_MLINESTYLE
350
17
0
DICTIONARY
5
D
100
AcDbDictionary
0
DICTIONARY
5
1A
330
C
100
AcDbDictionary
0
DICTIONARY
5
17
100
AcDbDictionary
0
ENDSEC
0
EOF
